<svg width="660" height="492" xmlns="http://www.w3.org/2000/svg" xmlns:xlink="http://www.w3.org/1999/xlink" overflow="hidden"><defs><clipPath id="clip0"><rect x="513" y="93" width="660" height="492"/></clipPath><clipPath id="clip1"><rect x="514" y="94" width="659" height="491"/></clipPath><clipPath id="clip2"><rect x="514" y="94" width="659" height="491"/></clipPath><clipPath id="clip3"><rect x="514" y="94" width="659" height="491"/></clipPath><clipPath id="clip4"><rect x="514" y="94" width="659" height="491"/></clipPath></defs><g clip-path="url(#clip0)" transform="translate(-513 -93)"><g clip-path="url(#clip1)"><g clip-path="url(#clip2)"><g clip-path="url(#clip3)"><path d="M514 94.0425 1173 94.0425 1173 584.958 514 584.958Z" fill="#FFFFFF"/><path d="M514 584.958 1173 584.958 1173 94.0425 514 94.0425Z" fill="#FFFFFF"/><g clip-path="url(#clip4)"><path d="M599.693 531.949 1110.56 531.949 1110.56 130.945 599.693 130.945Z" fill="#FFFFFF"/><path d="M599.693 531.949 599.693 526.847" stroke="#262626" stroke-width="2.00101" fill="none"/><path d="M599.693 130.945 599.693 136.047" stroke="#262626" stroke-width="2.00101" fill="none"/><path d="M667.808 531.949 667.808 526.847" stroke="#262626" stroke-width="2.00101" fill="none"/><path d="M667.808 130.945 667.808 136.047" stroke="#262626" stroke-width="2.00101" fill="none"/><path d="M735.923 531.949 735.923 526.847" stroke="#262626" stroke-width="2.00101" fill="none"/><path d="M735.923 130.945 735.923 136.047" stroke="#262626" stroke-width="2.00101" fill="none"/><path d="M804.039 531.949 804.039 526.847" stroke="#262626" stroke-width="2.00101" fill="none"/><path d="M804.039 130.945 804.039 136.047" stroke="#262626" stroke-width="2.00101" fill="none"/><path d="M872.153 531.949 872.153 526.847" stroke="#262626" stroke-width="2.00101" fill="none"/><path d="M872.153 130.945 872.153 136.047" stroke="#262626" stroke-width="2.00101" fill="none"/><path d="M940.269 531.949 940.269 526.847" stroke="#262626" stroke-width="2.00101" fill="none"/><path d="M940.269 130.945 940.269 136.047" stroke="#262626" stroke-width="2.00101" fill="none"/><path d="M1008.38 531.949 1008.38 526.847" stroke="#262626" stroke-width="2.00101" fill="none"/><path d="M1008.38 130.945 1008.38 136.047" stroke="#262626" stroke-width="2.00101" fill="none"/><path d="M1076.5 531.949 1076.5 526.847" stroke="#262626" stroke-width="2.00101" fill="none"/><path d="M1076.5 130.945 1076.5 136.047" stroke="#262626" stroke-width="2.00101" fill="none"/><text font-family="Arial,Arial_MSFontService,sans-serif" font-weight="700" font-size="16" transform="matrix(1.33401 0 0 1.33401 593.69 565)">     <tspan fill="#262626" x="0" y="0">0</tspan><tspan x="8.99998" y="0">    </tspan><tspan x="44.5606" y="0">     </tspan><tspan fill="#262626" x="44.5606" y="0">0</tspan><tspan fill="#262626" x="53.5606" y="0">.</tspan><tspan fill="#262626" x="57.5606" y="0">2</tspan><tspan x="66.5606" y="0">    </tspan><tspan x="95.6206" y="0">     </tspan><tspan fill="#262626" x="95.6206" y="0">0</tspan><tspan fill="#262626" x="104.621" y="0">.</tspan><tspan fill="#262626" x="108.621" y="0">4</tspan><tspan x="117.621" y="0">    </tspan><tspan x="146.682" y="0">     </tspan><tspan fill="#262626" x="146.682" y="0">0</tspan><tspan fill="#262626" x="155.682" y="0">.</tspan><tspan fill="#262626" x="159.682" y="0">6</tspan><tspan x="168.682" y="0">    </tspan><tspan x="197.742" y="0">     </tspan><tspan fill="#262626" x="197.742" y="0">0</tspan><tspan fill="#262626" x="206.742" y="0">.</tspan><tspan fill="#262626" x="210.742" y="0">8</tspan><tspan x="219.742" y="0">    </tspan><tspan x="255.303" y="0">     </tspan><tspan fill="#262626" x="255.303" y="0">1</tspan><tspan x="264.303" y="0">    </tspan><tspan x="299.863" y="0">     </tspan><tspan fill="#262626" x="299.863" y="0">1</tspan><tspan fill="#262626" x="308.863" y="0">.</tspan><tspan fill="#262626" x="312.863" y="0">2</tspan>    <tspan x="350.924" y="0">     </tspan><tspan fill="#262626" x="350.924" y="0">1</tspan><tspan fill="#262626" x="359.924" y="0">.</tspan><tspan fill="#262626" x="363.924" y="0">4</tspan><tspan x="372.924" y="0">    </tspan></text><path d="M599.693 501.734 604.801 501.734" stroke="#262626" stroke-width="2.00101" fill="none"/><path d="M1110.56 501.734 1105.45 501.734" stroke="#262626" stroke-width="2.00101" fill="none"/><path d="M599.693 433.62 604.801 433.62" stroke="#262626" stroke-width="2.00101" fill="none"/><path d="M1110.56 433.62 1105.45 433.62" stroke="#262626" stroke-width="2.00101" fill="none"/><path d="M599.693 365.504 604.801 365.504" stroke="#262626" stroke-width="2.00101" fill="none"/><path d="M1110.56 365.504 1105.45 365.504" stroke="#262626" stroke-width="2.00101" fill="none"/><path d="M599.693 297.389 604.801 297.389" stroke="#262626" stroke-width="2.00101" fill="none"/><path d="M1110.56 297.389 1105.45 297.389" stroke="#262626" stroke-width="2.00101" fill="none"/><path d="M599.693 229.274 604.801 229.274" stroke="#262626" stroke-width="2.00101" fill="none"/><path d="M1110.56 229.274 1105.45 229.274" stroke="#262626" stroke-width="2.00101" fill="none"/><path d="M599.693 161.159 604.801 161.159" stroke="#262626" stroke-width="2.00101" fill="none"/><path d="M1110.56 161.159 1105.45 161.159" stroke="#262626" stroke-width="2.00101" fill="none"/><text font-family="Arial,Arial_MSFontService,sans-serif" font-weight="700" font-size="16" transform="matrix(1.33401 0 0 1.33401 577.016 510)">     <tspan fill="#262626" x="0" y="0">0</tspan><tspan x="8.99998" y="0">    </tspan><tspan x="-13" y="-50.9742">     </tspan><tspan fill="#262626" x="-13" y="-50.9742">0</tspan><tspan fill="#262626" x="-4.00002" y="-50.9742">.</tspan><tspan fill="#262626" x="0" y="-50.9742">2</tspan><tspan x="8.99998" y="-50.9742">    </tspan><tspan x="-13" y="-101.948">     </tspan><tspan fill="#262626" x="-13" y="-101.948">0</tspan><tspan fill="#262626" x="-4.00002" y="-101.948">.</tspan><tspan fill="#262626" x="0" y="-101.948">4</tspan><tspan x="8.99998" y="-101.948">    </tspan><tspan x="-13" y="-152.923">     </tspan><tspan fill="#262626" x="-13" y="-152.923">0</tspan><tspan fill="#262626" x="-4.00002" y="-152.923">.</tspan><tspan fill="#262626" x="0" y="-152.923">6</tspan><tspan x="8.99998" y="-152.923">    </tspan><tspan x="-13" y="-203.897">     </tspan><tspan fill="#262626" x="-13" y="-203.897">0</tspan><tspan fill="#262626" x="-4.00002" y="-203.897">.</tspan><tspan fill="#262626" x="0" y="-203.897">8</tspan><tspan x="8.99998" y="-203.897">    </tspan><tspan x="0" y="-254.871">     </tspan><tspan fill="#262626" x="0" y="-254.871">1</tspan><tspan x="8.99998" y="-254.871">    </tspan></text><path d="M599.693 531.949 1110.56 531.949" stroke="#262626" stroke-width="2.00101" stroke-linecap="square" stroke-dasharray="42.6883 0" fill="none"/><path d="M599.693 130.945 1110.56 130.945" stroke="#262626" stroke-width="2.00101" stroke-linecap="square" stroke-dasharray="42.6883 0" fill="none"/><path d="M599.693 531.949 599.693 130.945" stroke="#262626" stroke-width="2.00101" stroke-linecap="square" stroke-dasharray="42.6883 0" fill="none"/><path d="M1110.56 531.949 1110.56 130.945" stroke="#262626" stroke-width="2.00101" stroke-linecap="square" stroke-dasharray="42.6883 0" fill="none"/><path d="M1110.56 501.734 1110.49 496.331 1110.3 490.929 1109.98 485.53 1109.53 480.134 1108.95 474.744 1108.24 469.36 1107.41 463.986 1106.45 458.62 1105.36 453.266 1104.14 447.923 1102.8 442.595 1101.33 437.28 1099.73 431.983 1098 426.703 1096.16 421.441 1094.18 416.2 1092.08 410.98 1089.86 405.783 1087.52 400.611 1085.05 395.463 1082.46 390.343 1079.75 385.251 1076.92 380.187 1073.96 375.155 1070.89 370.155 1067.7 365.188 1064.39 360.254 1060.96 355.357 1057.42 350.496 1053.77 345.674 1050 340.89 1046.11 336.148 1042.11 331.447 1038.01 326.788 1033.79 322.174 1029.46 317.605 1025.02 313.083 1020.48 308.608 1015.83 304.181 1011.08 299.805 1006.22 295.479 1001.26 291.205 996.199 286.984 991.037 282.817 985.777 278.705 980.421 274.65 974.969 270.651 969.422 266.711 963.782 262.829 958.051 259.009 952.23 255.248 946.319 251.55 940.321 247.916 934.238 244.345 928.069 240.838 921.82 237.398 915.488 234.024 909.077 230.717 902.589 227.479 896.023 224.31 889.383 221.21 882.671 218.182 875.887 215.224 869.033 212.339 862.112 209.526 855.125 206.788 848.073 204.123 840.959 201.533 833.784 199.019 826.55 196.581 819.26 194.22 811.913 191.936 804.514 189.73 797.063 187.603 789.562 185.555 782.013 183.587 774.418 181.698 766.78 179.89 759.1 178.164 751.379 176.518 743.62 174.955 735.824 173.473 727.995 172.075 720.134 170.759 712.242 169.527 704.322 168.378 696.375 167.314 688.404 166.333 680.411 165.437 672.396 164.626 664.364 163.899 656.316 163.258 648.253 162.701 640.179 162.23 632.094 161.845 624.001 161.545 615.902 161.331 607.799 161.202 599.693 161.159" stroke="#0071BC" stroke-width="2.00101" stroke-linejoin="round" fill="none"/></g></g></g></g><path d="M801.5 187.5 801.5 532.581" stroke="#4472C4" stroke-width="0.666667" stroke-miterlimit="8" fill="none" fill-rule="evenodd"/><path d="M818.5 194.5 818.5 532.662" stroke="#4472C4" stroke-width="0.666667" stroke-miterlimit="8" fill="none" fill-rule="evenodd"/><text font-family="Cambria Math,Cambria Math_MSFontService,sans-serif" font-weight="400" font-size="24" transform="translate(795.269 176)">洧녬洧논</text><path d="M879.5 218C879.5 216.619 880.619 215.5 882 215.5 883.381 215.5 884.5 216.619 884.5 218 884.5 219.381 883.381 220.5 882 220.5 880.619 220.5 879.5 219.381 879.5 218Z" stroke="#FF0000" stroke-width="1.33333" stroke-miterlimit="8" fill="#FF0000" fill-rule="evenodd"/><path d="M903.912 177.256C906.193 177.858 907.945 179.157 909.167 181.153 910.39 183.149 911.001 185.557 911.001 188.377 911.001 191.206 910.392 193.614 909.173 195.602 907.955 197.59 906.201 198.885 903.912 199.487L903.63 198.585C905.435 197.983 906.777 196.795 907.656 195.022 908.535 193.249 908.974 190.995 908.974 188.26 908.974 185.62 908.537 183.426 907.662 181.68 906.787 179.934 905.431 178.76 903.595 178.159ZM865.916 177.256 866.232 178.159C864.404 178.76 863.051 179.934 862.172 181.68 861.293 183.426 860.853 185.62 860.853 188.26 860.853 190.995 861.293 193.249 862.172 195.022 863.051 196.795 864.392 197.983 866.197 198.585L865.916 199.487C863.627 198.885 861.873 197.59 860.654 195.602 859.435 193.614 858.826 191.206 858.826 188.377 858.826 185.557 859.437 183.149 860.66 181.153 861.883 179.157 863.635 177.858 865.916 177.256Z" fill-rule="evenodd"/><text font-family="Cambria Math,Cambria Math_MSFontService,sans-serif" font-weight="400" font-size="24" transform="translate(866.677 195)">洧논<tspan x="13.56" y="0">,</tspan><tspan x="22.56" y="0">洧녽</tspan><tspan x="53.1" y="0">=</tspan><tspan x="77.7667" y="0">(</tspan>a<tspan x="99.4333" y="0"> </tspan><tspan x="104.767" y="0">cos</tspan><tspan x="142.267" y="0">洧노</tspan><tspan x="152.353" y="0">,</tspan><tspan x="161.353" y="0">洧녪</tspan><tspan x="178.88" y="0">sin</tspan><tspan x="213.213" y="0">洧노</tspan><tspan x="223.3" y="0">)</tspan><tspan x="-30.6186" y="326">洧녩</tspan><tspan x="-253.174" y="161">洧녪</tspan></text><path d="M620.167 328.25 620.167 166.167 620.833 166.167 620.833 328.25ZM616.5 167.5 620.5 159.5 624.5 167.5Z" fill="#4472C4"/><path d="M0.333333-2.12034e-07 0.333434 158.381-0.333233 158.381-0.333333 2.12034e-07ZM4.0001 157.047 0.000104987 165.047-3.9999 157.047Z" fill="#4472C4" transform="matrix(-1 -8.74228e-08 -8.74228e-08 1 620.5 367.5)"/><path d="M863.502 513.167 1097.23 514.428 1097.23 515.095 863.498 513.833ZM1095.92 510.754 1103.9 514.797 1095.88 518.754Z" fill="#4472C4"/><path d="M1.57226e-07-0.333333 215.915-0.333231 215.915 0.333435-1.57226e-07 0.333333ZM214.582-3.9999 222.582 0.000104987 214.582 4.0001Z" fill="#4472C4" transform="matrix(-1 -8.74228e-08 -8.74228e-08 1 824.082 513.5)"/></g></svg>