<?xml version="1.0" encoding="utf-8"?>
<!-- Generator: Adobe Illustrator 22.1.0, SVG Export Plug-In . SVG Version: 6.00 Build 0)  -->
<svg version="1.1" id="Standard" xmlns="http://www.w3.org/2000/svg" xmlns:xlink="http://www.w3.org/1999/xlink" x="0px" y="0px"
	 viewBox="0 0 1157 356.53" style="enable-background:new 0 0 1157 356.53;" xml:space="preserve">
<style type="text/css">
	.st0{fill:#F4CCCC;}
	.st1{fill:none;stroke:#000000;stroke-miterlimit:10;}
	.st2{fill:url(#SVGID_1_);}
	.st3{fill:none;stroke:#FF0033;stroke-linecap:round;stroke-linejoin:round;stroke-miterlimit:10;}
	.st4{fill:url(#SVGID_2_);stroke:#000000;stroke-miterlimit:10;}
	.st5{fill:none;stroke:#000000;stroke-width:0.5;stroke-miterlimit:10;}
</style>
<path class="st0" d="M1131.46,219.22h-111.33c-1.42,4.33-3,9.48-4.33,14.6c-6.02,23.09,11.18,17.19,7.31,40.79
	c-1,6.09-3.54,12.82-5.8,17.97h114.15V219.22z"/>
<path class="st0" d="M986.19,233.82c1.33-5.12,2.92-10.27,4.33-14.6H772.46v73.36H987.7c2.26-5.15,4.8-11.88,5.8-17.97
	C997.37,251.01,980.17,256.91,986.19,233.82z"/>
<line class="st1" x1="84.92" y1="299.48" x2="84.92" y2="290.97"/>
<line class="st1" x1="158.2" y1="299.48" x2="158.2" y2="290.97"/>
<line class="st1" x1="232.41" y1="299.48" x2="232.41" y2="290.97"/>
<rect x="448.1" y="29.64" class="st0" width="140.86" height="42.31"/>
<rect x="476.1" y="219.22" class="st0" width="191.23" height="73.36"/>
<linearGradient id="SVGID_1_" gradientUnits="userSpaceOnUse" x1="430.0831" y1="63.0067" x2="448.1332" y2="63.0067" gradientTransform="matrix(1 0 0 -1 0 113.8165)">
	<stop  offset="0" style="stop-color:#4C34A3"/>
	<stop  offset="0.1067" style="stop-color:#5380AD"/>
	<stop  offset="0.2528" style="stop-color:#2A8EB0"/>
	<stop  offset="0.3146" style="stop-color:#4EABAE"/>
	<stop  offset="0.3652" style="stop-color:#4CBF35"/>
	<stop  offset="0.5056" style="stop-color:#EEF059"/>
	<stop  offset="0.5899" style="stop-color:#F2CA61"/>
	<stop  offset="0.6348" style="stop-color:#E48D3C"/>
	<stop  offset="0.8034" style="stop-color:#FF5B45"/>
	<stop  offset="1" style="stop-color:#BF2626"/>
</linearGradient>
<rect x="430.08" y="29.69" class="st2" width="18.05" height="42.24"/>
<path class="st3" d="M475.54,169.1c2.95-0.48,9.4-6.17,12.9,2.86c1.32,3.39,0.93-7.62,2.91-7.44c1.77-0.15,2.66,0.66,3.69,2.07
	c1.04,1.41,2.76,5.9,2.76,5.9s3.76-5.15,4.58-6.45c1.15-1.84,3.98-2.61,5.78,0.12c1.05,1.6,2.38,14,2.38,14s2.03-13.11,2.47-14.25
	c0.5-1.28,3.04-1.47,5.84,0.5c1.79,1.25,3.89,16.5,3.89,16.5s1.94-18.25,3.88-18.5s1.94-0.25,5.34,0.5c3.4,0.75,3.4,24,3.88,31
	s1.46,23,1.46,23"/>
<path class="st3" d="M542.25,218.91c0,0,1.25-48.25,2.25-53.5s3.25-6.5,6-6.5s5.25,3.25,5.5,9s1.25,51,1.25,51
	s3.97-30.52,4.25-32.75c0.5-4,2.5-5.5,2.5-5.5s0.25-14.5,0.75-17.5s1.75-5,5.5-5s6.75,0.5,7.25,4.75s3.5,26,4.5,34
	s2.75,21.75,2.75,21.75"/>
<path class="st3" d="M594.75,218.91c0,0,1.25-19.75,2.25-20.5s3.75,2.25,4.5,2.25s1-2.75,1-2.75s0.25-19.75,1.25-22.5s2.75-3,4-2.25
	s0.5,28,0.5,28H610c0,0,0.5-13.25,0.5-16.5s3-2.5,3-2.5s0.25-26,0.25-27.5s1.25-5,3-5s3.25,1.75,3.25,1.75s0.25-2,1.25-2
	s1.75,1.75,1.75,3.75s1.25,3.75,1.25,3.75s0.5-6,1.5-7s2.25-0.75,4.25-0.75s2.75-1.5,4.25-1s2.25,1.75,2.25,3.75
	s2.25,7.5,2.25,14.25s2,32.5,2.5,38.25s0.75,14.5,0.75,14.5"/>
<path class="st3" d="M649,219.16c0,0,0.75-22.75,1.25-24.25s3-1,3-1s-0.75-24.5,0.5-26.25s3.5-0.5,4.75,1s2.75,3.75,2.75,3.75
	l0.25,7.75c0,0,1.25-1.25,2-3s2.5-3.25,2.5-3.25v12.25l2.25,2.5v21.25l1.25,2.25l1.25-4.5v-12c0,0,0.25-4.5,1.5-5
	s2.25,1.25,2.25,3.5s0,10,0,10l2.75,1.5l0.5,5.5c0,0,1,1.5,2.25,1.75s1.5,2,2.5,3s3.25,3,3.25,3"/>
<path class="st3" d="M760.5,218.91l2.5-2.25c0,0,0-7.75,0.5-9s2.5-1.5,2.5-1.5s-0.5-3,1-3.25s3.25,1.75,3.25,1.75l1.25,2.5
	c0,0,4-18.5,4.75-22.5s0-8,1.75-9s2.75,0.25,3.75-0.75s-0.75-5.5,0.5-6.25s3-1.25,3-3s-0.5-5.25,1.75-5.75s2.5,1.25,3.5,2.25
	s2,1.75,3.25,0.5s1.25-1.25,1.25-1.25s0.25,3.5,2,3.75s3.25-1,4.25-3.25s4.25-3.5,8-3.5s10.75-0.75,12.5,0.25s3,3,3.25,4.5
	s1.5,2.75,2.75,2.5s2-3,2-3l2-1.75c0,0-0.5-3,1.25-3.5s3.25,1.25,5,1.25s6-1.25,7.75-1.25s2.5,0.5,4,1.25s2,3.25,2,3.25
	s2.25-1.75,5.75-2s5.75,2.75,7.25,3s3.5,0.5,4,2.5s2.75,3.75,2.75,3.75s2-2,4.25-2.25s4.5-1,6-0.5s1.5,0.5,1.5,0.5s2.25-4.25,4-4.5
	s1.5,2.5,2,4.25s0.75,4.5,2.25,4.25s1.25-2.75,3-3.25s3-1.75,6.5-1.75s7.25-1,7.5,1.5s0,11,0,12.75s1.03,1.75,2.64,0.5
	s1.86-8.25,2.86-10.75s2.25-3,3.75-2.5s2.75,3.75,4.25,4.75s2.75,1.25,3.25-1.5s2.75-3,3.5-1.25s2.5,6,3.5,7s2.5,3.25,2.5,3.25
	s0,6,0,9s1.25,7.5,3.5,7.5s4.5-8,5.25-12.25s0.75-7.25,2.25-8s3.75,1,3.75,1s-1.75,8-0.5,8.25s2.5-3,2.5-3h2.5c0,0,1,2.75,3,2.75
	s3-3.25,4.5-3.25s2.5,2,2.5,4.25s0.75,12.75,1.75,15s2.75-1.5,3.75-2s2.25,3.5,2.25,5.5s-0.25,7,0.75,7s1.5-3.75,3-4.75
	s1,3.5,2.75,3.5s3.25-1.25,4.25-3.75s2-2,2.5,0.5s3.5,12.25,3.5,12.25"/>
<polyline class="st1" points="987.69,292.61 475.95,292.61 475.95,219.06 990.34,219.06 "/>
<polyline class="st1" points="1019.96,219.06 1131.4,219.06 1131.4,292.61 1017.31,292.61 "/>
<linearGradient id="SVGID_2_" gradientUnits="userSpaceOnUse" x1="39.5048" y1="255.8381" x2="365.6613" y2="255.8381">
	<stop  offset="0" style="stop-color:#4C34A3"/>
	<stop  offset="0.1067" style="stop-color:#5380AD"/>
	<stop  offset="0.2528" style="stop-color:#2A8EB0"/>
	<stop  offset="0.3146" style="stop-color:#4EABAE"/>
	<stop  offset="0.3652" style="stop-color:#4CBF35"/>
	<stop  offset="0.5056" style="stop-color:#EEF059"/>
	<stop  offset="0.5899" style="stop-color:#F2CA61"/>
	<stop  offset="0.6348" style="stop-color:#E48D3C"/>
	<stop  offset="0.8034" style="stop-color:#FF5B45"/>
	<stop  offset="1" style="stop-color:#BF2626"/>
</linearGradient>
<rect x="13.51" y="219.06" class="st4" width="401.45" height="73.55"/>
<line class="st1" x1="1011.98" y1="71.95" x2="90.29" y2="71.95"/>
<line class="st1" x1="91.83" y1="29.64" x2="1013.42" y2="29.64"/>
<line class="st5" x1="478.78" y1="156.18" x2="705" y2="156.18"/>
<line class="st5" x1="738.3" y1="156.18" x2="988.67" y2="156.18"/>
<line class="st5" x1="478.78" y1="171.89" x2="483.94" y2="171.89"/>
<line class="st5" x1="478.78" y1="187.6" x2="483.94" y2="187.6"/>
<line class="st5" x1="478.78" y1="203.31" x2="483.94" y2="203.31"/>
<g>
	<path d="M686.21,182.28v-0.02c0-1.31,1.08-2,2.65-2c0.79,0,1.36,0.11,1.91,0.26v-0.22c0-1.12-0.68-1.69-1.85-1.69
		c-0.73,0-1.31,0.19-1.88,0.46l-0.28-0.75c0.68-0.31,1.36-0.52,2.25-0.52c0.88,0,1.55,0.23,2,0.68c0.42,0.42,0.64,1.02,0.64,1.81
		v3.79h-0.89v-0.94c-0.43,0.56-1.15,1.07-2.24,1.07C687.38,184.21,686.21,183.55,686.21,182.28z M690.78,181.8v-0.6
		c-0.46-0.13-1.07-0.26-1.82-0.26c-1.16,0-1.81,0.5-1.81,1.28v0.02c0,0.78,0.72,1.24,1.56,1.24
		C689.85,183.48,690.78,182.78,690.78,181.8z"/>
	<path d="M693.89,182.43v-3.74h-0.86v-0.82h0.86V176h0.92v1.87h1.97v0.82h-1.97v3.62c0,0.75,0.42,1.03,1.04,1.03
		c0.31,0,0.58-0.06,0.9-0.22v0.79c-0.32,0.17-0.67,0.26-1.12,0.26C694.65,184.18,693.89,183.69,693.89,182.43z"/>
	<path d="M698.42,177.88h0.92v1.04c0.41-0.61,0.96-1.18,2-1.18c1.01,0,1.66,0.54,1.99,1.24c0.44-0.68,1.1-1.24,2.18-1.24
		c1.43,0,2.3,0.96,2.3,2.5v3.84h-0.92v-3.62c0-1.2-0.6-1.87-1.61-1.87c-0.94,0-1.71,0.7-1.71,1.92v3.57h-0.91v-3.65
		c0-1.16-0.61-1.85-1.6-1.85s-1.73,0.82-1.73,1.96v3.54h-0.92V177.88z"/>
	<path d="M709.41,181v-0.02c0-1.75,1.37-3.24,3.24-3.24c1.86,0,3.23,1.46,3.23,3.21v0.02c0,1.75-1.38,3.24-3.25,3.24
		C710.77,184.22,709.41,182.76,709.41,181z M714.93,181v-0.02c0-1.33-1-2.42-2.3-2.42c-1.34,0-2.27,1.09-2.27,2.4v0.02
		c0,1.33,0.98,2.41,2.29,2.41C713.99,183.39,714.93,182.31,714.93,181z"/>
	<path d="M717.03,183.28l0.47-0.66c0.67,0.5,1.42,0.79,2.15,0.79c0.74,0,1.28-0.38,1.28-0.98v-0.02c0-0.62-0.73-0.86-1.55-1.09
		c-0.97-0.28-2.05-0.61-2.05-1.75v-0.02c0-1.07,0.89-1.78,2.11-1.78c0.75,0,1.59,0.26,2.23,0.68l-0.42,0.7
		c-0.58-0.37-1.24-0.6-1.83-0.6c-0.73,0-1.2,0.38-1.2,0.9v0.02c0,0.59,0.77,0.82,1.59,1.07c0.96,0.29,1.99,0.66,1.99,1.78v0.02
		c0,1.18-0.97,1.86-2.21,1.86C718.71,184.2,717.73,183.85,717.03,183.28z"/>
	<path d="M723.52,177.88h0.92v1.25c0.5-0.74,1.24-1.38,2.38-1.38c1.49,0,2.96,1.18,2.96,3.21v0.02c0,2.03-1.46,3.23-2.96,3.23
		c-1.15,0-1.9-0.62-2.38-1.32v3.11h-0.92V177.88z M728.84,180.99v-0.02c0-1.46-1.01-2.4-2.18-2.4c-1.15,0-2.24,0.97-2.24,2.39v0.02
		c0,1.44,1.09,2.4,2.24,2.4C727.85,183.38,728.84,182.49,728.84,180.99z"/>
	<path d="M731.49,175.32h0.92v3.63c0.41-0.67,1.06-1.21,2.12-1.21c1.5,0,2.37,1.01,2.37,2.48v3.85h-0.92v-3.62
		c0-1.15-0.62-1.87-1.72-1.87c-1.07,0-1.86,0.78-1.86,1.94v3.55h-0.92V175.32z"/>
	<path d="M738.5,180.99v-0.02c0-1.79,1.26-3.23,2.97-3.23c1.83,0,2.89,1.46,2.89,3.27c0,0.12,0,0.19-0.01,0.3h-4.92
		c0.13,1.34,1.08,2.1,2.18,2.1c0.85,0,1.45-0.35,1.96-0.88l0.58,0.52c-0.62,0.7-1.38,1.16-2.55,1.16
		C739.89,184.22,738.5,182.91,738.5,180.99z M743.43,180.63c-0.1-1.13-0.74-2.11-1.98-2.11c-1.08,0-1.89,0.9-2.01,2.11H743.43z"/>
	<path d="M745.99,177.88h0.92v1.62c0.46-1.03,1.36-1.78,2.53-1.73v1h-0.07c-1.36,0-2.46,0.97-2.46,2.84v2.47h-0.92V177.88z"/>
	<path d="M750.87,175.5h1.06v1.02h-1.06V175.5z M750.93,177.88h0.92v6.2h-0.92V177.88z"/>
	<path d="M753.62,181v-0.02c0-1.75,1.37-3.24,3.18-3.24c1.17,0,1.91,0.49,2.48,1.1l-0.61,0.65c-0.49-0.52-1.04-0.94-1.88-0.94
		c-1.26,0-2.22,1.07-2.22,2.4v0.02c0,1.34,0.98,2.41,2.28,2.41c0.79,0,1.4-0.4,1.89-0.92l0.59,0.55c-0.62,0.7-1.37,1.2-2.53,1.2
		C754.99,184.22,753.62,182.74,753.62,181z"/>
	<path d="M686.9,196.83v-3.74h-0.86v-0.82h0.86v-1.87h0.92v1.87h1.97v0.82h-1.97v3.62c0,0.75,0.42,1.03,1.04,1.03
		c0.31,0,0.58-0.06,0.9-0.22v0.79c-0.32,0.17-0.67,0.26-1.12,0.26C687.65,198.58,686.9,198.09,686.9,196.83z"/>
	<path d="M691.42,192.28h0.92v1.62c0.46-1.03,1.36-1.78,2.53-1.73v1h-0.07c-1.35,0-2.46,0.97-2.46,2.84v2.47h-0.92V192.28z"/>
	<path d="M695.52,196.68v-0.02c0-1.31,1.08-2,2.65-2c0.79,0,1.36,0.11,1.91,0.26v-0.22c0-1.12-0.68-1.69-1.85-1.69
		c-0.73,0-1.31,0.19-1.88,0.46l-0.28-0.75c0.68-0.31,1.36-0.52,2.25-0.52c0.88,0,1.55,0.23,2,0.68c0.42,0.42,0.64,1.02,0.64,1.81
		v3.79h-0.89v-0.94c-0.43,0.56-1.15,1.07-2.24,1.07C696.68,198.61,695.52,197.95,695.52,196.68z M700.08,196.2v-0.6
		c-0.46-0.13-1.07-0.26-1.82-0.26c-1.16,0-1.81,0.5-1.81,1.28v0.02c0,0.78,0.72,1.24,1.56,1.24
		C699.15,197.88,700.08,197.18,700.08,196.2z"/>
	<path d="M702.93,192.28h0.92v1.08c0.41-0.67,1.06-1.21,2.12-1.21c1.5,0,2.37,1.01,2.37,2.48v3.85h-0.92v-3.62
		c0-1.15-0.62-1.87-1.72-1.87c-1.07,0-1.86,0.78-1.86,1.94v3.55h-0.92V192.28z"/>
	<path d="M709.81,197.68l0.47-0.66c0.67,0.5,1.42,0.79,2.15,0.79c0.74,0,1.28-0.38,1.28-0.98v-0.02c0-0.62-0.73-0.86-1.55-1.09
		c-0.97-0.28-2.05-0.61-2.05-1.75v-0.02c0-1.07,0.89-1.78,2.11-1.78c0.75,0,1.59,0.26,2.23,0.68l-0.42,0.7
		c-0.58-0.37-1.24-0.6-1.83-0.6c-0.73,0-1.2,0.38-1.2,0.9v0.02c0,0.59,0.77,0.82,1.59,1.07c0.96,0.29,1.99,0.66,1.99,1.78v0.02
		c0,1.18-0.97,1.86-2.21,1.86C711.49,198.6,710.5,198.25,709.81,197.68z"/>
	<path d="M716.3,192.28h0.92v1.04c0.41-0.61,0.96-1.18,2-1.18c1.01,0,1.66,0.54,1.99,1.24c0.44-0.68,1.1-1.24,2.18-1.24
		c1.43,0,2.3,0.96,2.3,2.5v3.84h-0.92v-3.62c0-1.2-0.6-1.87-1.61-1.87c-0.94,0-1.71,0.7-1.71,1.92v3.57h-0.91v-3.65
		c0-1.16-0.61-1.85-1.6-1.85s-1.73,0.82-1.73,1.96v3.54h-0.92V192.28z"/>
	<path d="M727.7,189.9h1.05v1.02h-1.05V189.9z M727.76,192.28h0.92v6.2h-0.92V192.28z"/>
	<path d="M730.32,197.68l0.47-0.66c0.67,0.5,1.42,0.79,2.15,0.79c0.74,0,1.28-0.38,1.28-0.98v-0.02c0-0.62-0.73-0.86-1.55-1.09
		c-0.97-0.28-2.05-0.61-2.05-1.75v-0.02c0-1.07,0.89-1.78,2.11-1.78c0.75,0,1.59,0.26,2.23,0.68l-0.42,0.7
		c-0.58-0.37-1.24-0.6-1.83-0.6c-0.73,0-1.2,0.38-1.2,0.9v0.02c0,0.59,0.77,0.82,1.59,1.07c0.96,0.29,1.99,0.66,1.99,1.78v0.02
		c0,1.18-0.97,1.86-2.21,1.86C731.99,198.6,731.01,198.25,730.32,197.68z"/>
	<path d="M736.17,197.68l0.47-0.66c0.67,0.5,1.42,0.79,2.15,0.79c0.74,0,1.28-0.38,1.28-0.98v-0.02c0-0.62-0.73-0.86-1.55-1.09
		c-0.97-0.28-2.05-0.61-2.05-1.75v-0.02c0-1.07,0.89-1.78,2.11-1.78c0.75,0,1.59,0.26,2.23,0.68l-0.42,0.7
		c-0.58-0.37-1.24-0.6-1.83-0.6c-0.73,0-1.2,0.38-1.2,0.9v0.02c0,0.59,0.77,0.82,1.59,1.07c0.96,0.29,1.99,0.66,1.99,1.78v0.02
		c0,1.18-0.97,1.86-2.21,1.86C737.85,198.6,736.87,198.25,736.17,197.68z"/>
	<path d="M742.69,189.9h1.06v1.02h-1.06V189.9z M742.75,192.28h0.92v6.2h-0.92V192.28z"/>
	<path d="M745.43,195.41v-0.02c0-1.75,1.37-3.24,3.24-3.24c1.86,0,3.23,1.46,3.23,3.21v0.02c0,1.75-1.38,3.24-3.25,3.24
		C746.79,198.62,745.43,197.16,745.43,195.41z M750.95,195.41v-0.02c0-1.33-1-2.42-2.3-2.42c-1.34,0-2.27,1.09-2.27,2.4v0.02
		c0,1.33,0.98,2.41,2.29,2.41C750.02,197.79,750.95,196.71,750.95,195.41z"/>
	<path d="M753.57,192.28h0.92v1.08c0.41-0.67,1.06-1.21,2.12-1.21c1.5,0,2.37,1.01,2.37,2.48v3.85h-0.92v-3.62
		c0-1.15-0.62-1.87-1.72-1.87c-1.07,0-1.86,0.78-1.86,1.94v3.55h-0.92V192.28z"/>
</g>
<g>
	<path d="M458.65,312.38v-0.02c0-2.35,1.4-4.34,3.56-4.34s3.53,1.97,3.53,4.32v0.02c0,2.35-1.39,4.34-3.55,4.34
		C460.02,316.7,458.65,314.73,458.65,312.38z M464.76,312.38v-0.02c0-1.83-1.01-3.48-2.57-3.48c-1.57,0-2.55,1.61-2.55,3.45v0.02
		c0,1.83,1.01,3.48,2.58,3.48S464.76,314.21,464.76,312.38z"/>
	<path d="M467.16,315.29h1.1v1.26h-1.1V315.29z"/>
	<path d="M474.37,309.02h-4.62v-0.86h5.7v0.71l-3.81,7.69h-1.05L474.37,309.02z"/>
	<path d="M483.82,316.57c-0.18,0.05-0.36,0.07-0.65,0.07c-0.82,0-1.31-0.35-1.46-1.08c-0.42,0.7-1.08,1.12-1.86,1.12
		c-0.83,0-1.52-0.41-1.92-1.21h-0.01c0.08,0.65,0.11,1,0.11,1.52v1.49h-0.91v-8.12h0.92v3.56c0,1.12,0.76,1.96,1.8,1.96
		c1.04,0,1.81-0.84,1.81-1.96v-3.56h0.91v4.59c0,0.61,0.26,0.9,0.82,0.9c0.18,0,0.32-0.02,0.44-0.06V316.57z"/>
	<path d="M485.1,310.35h0.92v1.04c0.41-0.61,0.96-1.18,2-1.18c1.01,0,1.66,0.54,1.99,1.24c0.44-0.68,1.1-1.24,2.18-1.24
		c1.43,0,2.3,0.96,2.3,2.5v3.84h-0.92v-3.62c0-1.2-0.6-1.87-1.61-1.87c-0.94,0-1.71,0.7-1.71,1.92v3.57h-0.91v-3.65
		c0-1.16-0.61-1.85-1.6-1.85s-1.73,0.82-1.73,1.96v3.54h-0.92V310.35z"/>
</g>
<g>
	<path d="M494.41,252.26h1.99l4.59,6.04v-6.04h2.13v9.81h-1.83l-4.75-6.23v6.23h-2.13V252.26z"/>
	<path d="M505.57,252.26h2.16v9.81h-2.16V252.26z"/>
	<path d="M510.18,252.26h4.48c1.25,0,2.21,0.35,2.86,1c0.55,0.55,0.84,1.32,0.84,2.24v0.03c0,1.58-0.85,2.58-2.1,3.04l2.4,3.5h-2.52
		l-2.1-3.14h-1.69v3.14h-2.16V252.26z M514.52,257.02c1.05,0,1.65-0.56,1.65-1.39v-0.03c0-0.92-0.64-1.4-1.7-1.4h-2.14v2.82H514.52z
		"/>
</g>
<g>
	<path d="M548.11,260.64l1.28-1.53c0.88,0.73,1.81,1.19,2.93,1.19c0.88,0,1.42-0.35,1.42-0.92v-0.03c0-0.55-0.34-0.83-1.97-1.25
		c-1.98-0.5-3.25-1.05-3.25-3v-0.03c0-1.78,1.43-2.96,3.43-2.96c1.43,0,2.65,0.45,3.64,1.25l-1.12,1.62
		c-0.87-0.6-1.72-0.97-2.55-0.97c-0.83,0-1.26,0.38-1.26,0.85v0.03c0,0.64,0.42,0.85,2.12,1.29c1.99,0.52,3.11,1.23,3.11,2.94v0.03
		c0,1.95-1.49,3.04-3.6,3.04C550.79,262.21,549.29,261.69,548.11,260.64z"/>
	<path d="M556.64,252.26h2.31l2.03,6.64l2.2-6.67h1.85l2.2,6.67l2.03-6.64h2.25l-3.35,9.88h-1.88l-2.21-6.42l-2.21,6.42h-1.88
		L556.64,252.26z"/>
	<path d="M573.2,252.26h2.16v9.81h-2.16V252.26z"/>
	<path d="M577.81,252.26h4.48c1.25,0,2.21,0.35,2.86,1c0.55,0.55,0.84,1.32,0.84,2.24v0.03c0,1.58-0.85,2.58-2.1,3.04l2.4,3.5h-2.52
		l-2.1-3.14h-1.69v3.14h-2.16V252.26z M582.15,257.02c1.05,0,1.65-0.56,1.65-1.39v-0.03c0-0.92-0.64-1.4-1.7-1.4h-2.14v2.82H582.15z
		"/>
</g>
<g>
	<path d="M611.51,252.26h2.33l2.58,4.15l2.58-4.15h2.33v9.81h-2.14v-6.4l-2.76,4.19h-0.06l-2.73-4.15v6.36h-2.12V252.26z"/>
	<path d="M622.9,252.26h2.31l2.03,6.64l2.2-6.67h1.85l2.2,6.67l2.03-6.64h2.25l-3.35,9.88h-1.88l-2.21-6.42l-2.21,6.42h-1.88
		L622.9,252.26z"/>
	<path d="M639.47,252.26h2.16v9.81h-2.16V252.26z"/>
	<path d="M644.07,252.26h4.48c1.25,0,2.21,0.35,2.86,1c0.55,0.55,0.84,1.32,0.84,2.24v0.03c0,1.58-0.85,2.58-2.1,3.04l2.4,3.5h-2.52
		l-2.1-3.14h-1.69v3.14h-2.16V252.26z M648.41,257.02c1.05,0,1.65-0.56,1.65-1.39v-0.03c0-0.92-0.64-1.4-1.7-1.4h-2.14v2.82H648.41z
		"/>
</g>
<g>
	<path d="M510.69,46.43h2.16v9.81h-2.16V46.43z"/>
	<path d="M515.3,46.43h4.48c1.25,0,2.21,0.35,2.86,1c0.55,0.55,0.84,1.32,0.84,2.24v0.03c0,1.58-0.85,2.58-2.1,3.04l2.4,3.5h-2.52
		l-2.1-3.14h-1.69v3.14h-2.16V46.43z M519.64,51.19c1.05,0,1.65-0.56,1.65-1.39v-0.03c0-0.92-0.64-1.4-1.7-1.4h-2.14v2.82H519.64z"
		/>
</g>
<g>
	<path d="M742.39,46.43h4.48c1.25,0,2.21,0.35,2.86,1c0.55,0.55,0.84,1.32,0.84,2.24v0.03c0,1.58-0.85,2.58-2.1,3.04l2.4,3.5h-2.52
		l-2.1-3.14h-1.69v3.14h-2.16V46.43z M746.73,51.19c1.05,0,1.65-0.56,1.65-1.39v-0.03c0-0.92-0.64-1.4-1.7-1.4h-2.14v2.82H746.73z"
		/>
	<path d="M751.84,54.07v-0.03c0-1.64,1.25-2.39,3.03-2.39c0.76,0,1.3,0.13,1.83,0.31v-0.13c0-0.88-0.55-1.37-1.61-1.37
		c-0.81,0-1.39,0.15-2.07,0.41l-0.53-1.62c0.83-0.36,1.64-0.6,2.91-0.6c1.16,0,2,0.31,2.54,0.84c0.56,0.56,0.81,1.39,0.81,2.4v4.36
		h-2.06v-0.81c-0.52,0.57-1.23,0.95-2.27,0.95C753,56.37,751.84,55.56,751.84,54.07z M756.73,53.58v-0.38
		c-0.36-0.17-0.84-0.28-1.36-0.28c-0.91,0-1.47,0.36-1.47,1.04v0.03c0,0.57,0.48,0.91,1.16,0.91
		C756.06,54.9,756.73,54.35,756.73,53.58z"/>
	<path d="M760.24,52.49v-0.03c0-2.51,1.64-3.88,3.42-3.88c1.13,0,1.83,0.52,2.34,1.12v-3.7h2.13v10.23H766v-1.08
		c-0.52,0.7-1.23,1.22-2.34,1.22C761.91,56.37,760.24,55,760.24,52.49z M766.02,52.49v-0.03c0-1.25-0.83-2.07-1.82-2.07
		c-0.99,0-1.83,0.81-1.83,2.07v0.03c0,1.25,0.84,2.07,1.83,2.07C765.2,54.56,766.02,53.74,766.02,52.49z"/>
	<path d="M770.07,46.01h2.24v1.89h-2.24V46.01z M770.12,48.72h2.13v7.51h-2.13V48.72z"/>
	<path d="M773.89,52.52v-0.03c0-2.16,1.74-3.91,4.08-3.91c2.33,0,4.05,1.72,4.05,3.88v0.03c0,2.16-1.74,3.91-4.08,3.91
		C775.61,56.4,773.89,54.68,773.89,52.52z M779.91,52.52v-0.03c0-1.11-0.8-2.07-1.97-2.07c-1.22,0-1.95,0.94-1.95,2.05v0.03
		c0,1.11,0.8,2.07,1.97,2.07C779.18,54.56,779.91,53.63,779.91,52.52z"/>
	<path d="M787.22,46.43h2.31l2.03,6.64l2.2-6.67h1.85l2.2,6.67l2.03-6.64h2.25l-3.35,9.88h-1.88l-2.21-6.42l-2.21,6.42h-1.88
		L787.22,46.43z"/>
	<path d="M802.03,54.07v-0.03c0-1.64,1.25-2.39,3.03-2.39c0.76,0,1.3,0.13,1.83,0.31v-0.13c0-0.88-0.55-1.37-1.61-1.37
		c-0.81,0-1.39,0.15-2.07,0.41l-0.53-1.62c0.83-0.36,1.64-0.6,2.91-0.6c1.16,0,2,0.31,2.54,0.84c0.56,0.56,0.81,1.39,0.81,2.4v4.36
		h-2.06v-0.81c-0.52,0.57-1.23,0.95-2.27,0.95C803.19,56.37,802.03,55.56,802.03,54.07z M806.92,53.58v-0.38
		c-0.36-0.17-0.84-0.28-1.36-0.28c-0.91,0-1.47,0.36-1.47,1.04v0.03c0,0.57,0.48,0.91,1.16,0.91
		C806.25,54.9,806.92,54.35,806.92,53.58z"/>
	<path d="M809.81,48.72h2.25l1.68,5.03l1.7-5.03h2.21l-2.96,7.56h-1.93L809.81,48.72z"/>
	<path d="M818.1,52.52v-0.03c0-2.14,1.53-3.91,3.71-3.91c2.51,0,3.66,1.95,3.66,4.08c0,0.17-0.01,0.36-0.03,0.56h-5.23
		c0.21,0.97,0.88,1.47,1.83,1.47c0.71,0,1.23-0.22,1.82-0.77l1.22,1.08c-0.7,0.87-1.71,1.4-3.07,1.4
		C819.77,56.4,818.1,54.82,818.1,52.52z M823.39,51.89c-0.13-0.95-0.69-1.6-1.58-1.6c-0.88,0-1.46,0.63-1.62,1.6H823.39z"/>
	<path d="M826.46,55.24l0.91-1.4c0.81,0.59,1.67,0.9,2.37,0.9c0.62,0,0.9-0.22,0.9-0.56v-0.03c0-0.46-0.73-0.62-1.55-0.87
		c-1.05-0.31-2.24-0.8-2.24-2.25v-0.03c0-1.53,1.23-2.38,2.75-2.38c0.95,0,1.99,0.32,2.8,0.87l-0.81,1.47
		c-0.74-0.43-1.48-0.7-2.03-0.7c-0.52,0-0.79,0.22-0.79,0.52v0.03c0,0.42,0.71,0.62,1.53,0.9c1.05,0.35,2.27,0.85,2.27,2.23v0.03
		c0,1.67-1.25,2.42-2.87,2.42C828.63,56.37,827.45,56.02,826.46,55.24z"/>
</g>
<g>
	<path d="M613.17,46.43h2.33l2.58,4.15l2.58-4.15h2.33v9.81h-2.14v-6.4l-2.76,4.19h-0.06l-2.73-4.15v6.36h-2.12V46.43z"/>
	<path d="M625.14,46.01h2.24v1.89h-2.24V46.01z M625.19,48.72h2.13v7.51h-2.13V48.72z"/>
	<path d="M628.96,52.52v-0.03c0-2.14,1.64-3.91,3.94-3.91c1.42,0,2.3,0.48,3,1.26l-1.3,1.4c-0.48-0.5-0.95-0.83-1.71-0.83
		c-1.06,0-1.82,0.94-1.82,2.05v0.03c0,1.15,0.74,2.07,1.91,2.07c0.71,0,1.2-0.31,1.72-0.8l1.25,1.26c-0.73,0.8-1.57,1.37-3.07,1.37
		C630.61,56.4,628.96,54.66,628.96,52.52z"/>
	<path d="M637.32,48.72h2.13v1.51c0.43-1.04,1.13-1.71,2.39-1.65v2.23h-0.11c-1.42,0-2.28,0.85-2.28,2.65v2.77h-2.13V48.72z"/>
	<path d="M642.59,52.52v-0.03c0-2.16,1.74-3.91,4.08-3.91c2.33,0,4.05,1.72,4.05,3.88v0.03c0,2.16-1.74,3.91-4.08,3.91
		C644.32,56.4,642.59,54.68,642.59,52.52z M648.62,52.52v-0.03c0-1.11-0.8-2.07-1.97-2.07c-1.22,0-1.95,0.94-1.95,2.05v0.03
		c0,1.11,0.8,2.07,1.97,2.07C647.89,54.56,648.62,53.63,648.62,52.52z"/>
	<path d="M651.29,48.72h2.16l1.21,4.55l1.41-4.58h1.84l1.43,4.59l1.23-4.57h2.12l-2.34,7.56h-1.92l-1.44-4.61l-1.47,4.61h-1.91
		L651.29,48.72z"/>
	<path d="M663.23,54.07v-0.03c0-1.64,1.25-2.39,3.03-2.39c0.76,0,1.3,0.13,1.83,0.31v-0.13c0-0.88-0.55-1.37-1.61-1.37
		c-0.81,0-1.39,0.15-2.07,0.41l-0.53-1.62c0.83-0.36,1.64-0.6,2.91-0.6c1.16,0,2,0.31,2.54,0.84c0.56,0.56,0.81,1.39,0.81,2.4v4.36
		h-2.06v-0.81c-0.52,0.57-1.23,0.95-2.27,0.95C664.39,56.37,663.23,55.56,663.23,54.07z M668.12,53.58v-0.38
		c-0.36-0.17-0.84-0.28-1.36-0.28c-0.91,0-1.47,0.36-1.47,1.04v0.03c0,0.57,0.48,0.91,1.16,0.91
		C667.45,54.9,668.12,54.35,668.12,53.58z"/>
	<path d="M671.02,48.72h2.25l1.68,5.03l1.7-5.03h2.21l-2.96,7.56h-1.93L671.02,48.72z"/>
	<path d="M679.3,52.52v-0.03c0-2.14,1.53-3.91,3.71-3.91c2.51,0,3.66,1.95,3.66,4.08c0,0.17-0.01,0.36-0.03,0.56h-5.23
		c0.21,0.97,0.88,1.47,1.83,1.47c0.71,0,1.23-0.22,1.82-0.77l1.22,1.08c-0.7,0.87-1.71,1.4-3.07,1.4
		C680.97,56.4,679.3,54.82,679.3,52.52z M684.6,51.89c-0.13-0.95-0.69-1.6-1.58-1.6c-0.88,0-1.46,0.63-1.62,1.6H684.6z"/>
	<path d="M687.66,55.24l0.91-1.4c0.81,0.59,1.67,0.9,2.37,0.9c0.62,0,0.9-0.22,0.9-0.56v-0.03c0-0.46-0.73-0.62-1.55-0.87
		c-1.05-0.31-2.24-0.8-2.24-2.25v-0.03c0-1.53,1.23-2.38,2.75-2.38c0.95,0,1.99,0.32,2.8,0.87l-0.81,1.47
		c-0.74-0.43-1.48-0.7-2.03-0.7c-0.52,0-0.79,0.22-0.79,0.52v0.03c0,0.42,0.71,0.62,1.53,0.9c1.05,0.35,2.27,0.85,2.27,2.23v0.03
		c0,1.67-1.25,2.42-2.87,2.42C689.83,56.37,688.66,56.02,687.66,55.24z"/>
</g>
<g>
	<path d="M387.87,52.03v-5.6h2.16v5.55c0,1.6,0.8,2.42,2.12,2.42s2.12-0.8,2.12-2.35v-5.62h2.16v5.53c0,2.97-1.67,4.43-4.3,4.43
		C389.48,56.39,387.87,54.91,387.87,52.03z"/>
	<path d="M397.77,46.43h2.38l2.56,6.91l2.56-6.91h2.33l-3.96,9.88h-1.9L397.77,46.43z"/>
</g>
<g>
	<path d="M281.93,46.43l-3.28,4.79l3.42,5.01h-2.52l-2.2-3.36l-2.21,3.36h-2.45l3.42-4.99l-3.28-4.82h2.52l2.04,3.18l2.09-3.18
		H281.93z"/>
	<path d="M282.49,50.87h4.31v2.05h-4.31V50.87z"/>
	<path d="M288.68,46.43h4.48c1.25,0,2.21,0.35,2.86,1c0.55,0.55,0.84,1.32,0.84,2.24v0.03c0,1.58-0.85,2.58-2.1,3.04l2.4,3.5h-2.52
		l-2.1-3.14h-1.69v3.14h-2.16V46.43z M293.02,51.19c1.05,0,1.65-0.56,1.65-1.39v-0.03c0-0.92-0.64-1.4-1.7-1.4h-2.14v2.82H293.02z"
		/>
	<path d="M298.13,54.07v-0.03c0-1.64,1.25-2.39,3.03-2.39c0.76,0,1.3,0.13,1.83,0.31v-0.13c0-0.88-0.55-1.37-1.61-1.37
		c-0.81,0-1.39,0.15-2.07,0.41l-0.53-1.62c0.83-0.36,1.64-0.6,2.91-0.6c1.16,0,2,0.31,2.54,0.84c0.56,0.56,0.81,1.39,0.81,2.4v4.36
		h-2.06v-0.81c-0.52,0.57-1.23,0.95-2.27,0.95C299.3,56.37,298.13,55.56,298.13,54.07z M303.02,53.58v-0.38
		c-0.36-0.17-0.84-0.28-1.36-0.28c-0.91,0-1.47,0.36-1.47,1.04v0.03c0,0.57,0.48,0.91,1.16,0.91
		C302.35,54.9,303.02,54.35,303.02,53.58z"/>
	<path d="M311.52,48.72h2.21l-2.89,7.69c-0.57,1.53-1.19,2.1-2.47,2.1c-0.77,0-1.34-0.2-1.89-0.52l0.71-1.54
		c0.28,0.17,0.63,0.29,0.91,0.29c0.36,0,0.56-0.11,0.74-0.49l-2.94-7.54h2.25l1.71,5.11L311.52,48.72z"/>
	<path d="M314.12,55.24l0.91-1.4c0.81,0.59,1.67,0.9,2.37,0.9c0.62,0,0.9-0.22,0.9-0.56v-0.03c0-0.46-0.73-0.62-1.55-0.87
		c-1.05-0.31-2.24-0.8-2.24-2.25v-0.03c0-1.53,1.23-2.38,2.75-2.38c0.95,0,1.99,0.32,2.8,0.87l-0.81,1.47
		c-0.74-0.43-1.48-0.7-2.03-0.7c-0.52,0-0.79,0.22-0.79,0.52v0.03c0,0.42,0.71,0.62,1.53,0.9c1.05,0.35,2.27,0.85,2.27,2.23v0.03
		c0,1.67-1.25,2.42-2.87,2.42C316.29,56.37,315.11,56.02,314.12,55.24z"/>
</g>
<g>
	<path d="M135.98,51.36v-0.03c0-2.79,2.17-5.07,5.14-5.07c1.77,0,2.83,0.48,3.85,1.34l-1.36,1.64c-0.76-0.63-1.43-0.99-2.56-0.99
		c-1.57,0-2.82,1.39-2.82,3.05v0.03c0,1.79,1.23,3.11,2.97,3.11c0.79,0,1.49-0.2,2.03-0.59v-1.4h-2.17v-1.86h4.26v4.26
		c-1.01,0.85-2.39,1.55-4.19,1.55C138.08,56.4,135.98,54.26,135.98,51.36z"/>
	<path d="M146.86,54.07v-0.03c0-1.64,1.25-2.39,3.03-2.39c0.76,0,1.3,0.13,1.83,0.31v-0.13c0-0.88-0.55-1.37-1.61-1.37
		c-0.81,0-1.39,0.15-2.07,0.41l-0.53-1.62c0.83-0.36,1.64-0.6,2.91-0.6c1.16,0,2,0.31,2.54,0.84c0.56,0.56,0.81,1.39,0.81,2.4v4.36
		h-2.06v-0.81c-0.52,0.57-1.23,0.95-2.27,0.95C148.02,56.37,146.86,55.56,146.86,54.07z M151.75,53.58v-0.38
		c-0.36-0.17-0.84-0.28-1.36-0.28c-0.91,0-1.47,0.36-1.47,1.04v0.03c0,0.57,0.48,0.91,1.16,0.91
		C151.07,54.9,151.75,54.35,151.75,53.58z"/>
	<path d="M155.59,48.72h2.13v1.06c0.49-0.63,1.13-1.21,2.21-1.21c0.98,0,1.72,0.43,2.12,1.19c0.66-0.77,1.44-1.19,2.46-1.19
		c1.58,0,2.54,0.95,2.54,2.76v4.89h-2.13v-4.19c0-1.01-0.45-1.53-1.25-1.53c-0.8,0-1.29,0.52-1.29,1.53v4.19h-2.13v-4.19
		c0-1.01-0.45-1.53-1.25-1.53c-0.8,0-1.29,0.52-1.29,1.53v4.19h-2.13V48.72z"/>
	<path d="M168.89,48.72h2.13v1.06c0.49-0.63,1.13-1.21,2.21-1.21c0.98,0,1.72,0.43,2.12,1.19c0.66-0.77,1.44-1.19,2.46-1.19
		c1.58,0,2.54,0.95,2.54,2.76v4.89h-2.13v-4.19c0-1.01-0.45-1.53-1.25-1.53c-0.8,0-1.29,0.52-1.29,1.53v4.19h-2.13v-4.19
		c0-1.01-0.45-1.53-1.25-1.53c-0.8,0-1.29,0.52-1.29,1.53v4.19h-2.13V48.72z"/>
	<path d="M181.74,54.07v-0.03c0-1.64,1.25-2.39,3.03-2.39c0.76,0,1.3,0.13,1.83,0.31v-0.13c0-0.88-0.55-1.37-1.61-1.37
		c-0.81,0-1.39,0.15-2.07,0.41l-0.53-1.62c0.83-0.36,1.64-0.6,2.91-0.6c1.16,0,2,0.31,2.54,0.84c0.56,0.56,0.81,1.39,0.81,2.4v4.36
		h-2.06v-0.81c-0.52,0.57-1.23,0.95-2.27,0.95C182.91,56.37,181.74,55.56,181.74,54.07z M186.63,53.58v-0.38
		c-0.36-0.17-0.84-0.28-1.36-0.28c-0.91,0-1.47,0.36-1.47,1.04v0.03c0,0.57,0.48,0.91,1.16,0.91
		C185.96,54.9,186.63,54.35,186.63,53.58z"/>
	<path d="M194.9,46.43h4.48c1.25,0,2.21,0.35,2.86,1c0.55,0.55,0.84,1.32,0.84,2.24v0.03c0,1.58-0.85,2.58-2.1,3.04l2.4,3.5h-2.52
		l-2.1-3.14h-1.69v3.14h-2.16V46.43z M199.25,51.19c1.05,0,1.65-0.56,1.65-1.39v-0.03c0-0.92-0.64-1.4-1.7-1.4h-2.14v2.82H199.25z"
		/>
	<path d="M204.35,54.07v-0.03c0-1.64,1.25-2.39,3.03-2.39c0.76,0,1.3,0.13,1.83,0.31v-0.13c0-0.88-0.55-1.37-1.61-1.37
		c-0.81,0-1.39,0.15-2.07,0.41L205,49.24c0.83-0.36,1.64-0.6,2.91-0.6c1.16,0,2,0.31,2.54,0.84c0.56,0.56,0.81,1.39,0.81,2.4v4.36
		h-2.06v-0.81c-0.52,0.57-1.23,0.95-2.27,0.95C205.52,56.37,204.35,55.56,204.35,54.07z M209.24,53.58v-0.38
		c-0.36-0.17-0.84-0.28-1.36-0.28c-0.91,0-1.47,0.36-1.47,1.04v0.03c0,0.57,0.48,0.91,1.16,0.91
		C208.57,54.9,209.24,54.35,209.24,53.58z"/>
	<path d="M217.74,48.72h2.21l-2.89,7.69c-0.57,1.53-1.19,2.1-2.47,2.1c-0.77,0-1.34-0.2-1.89-0.52l0.71-1.54
		c0.28,0.17,0.63,0.29,0.91,0.29c0.36,0,0.56-0.11,0.74-0.49l-2.94-7.54h2.25l1.71,5.11L217.74,48.72z"/>
	<path d="M220.34,55.24l0.91-1.4c0.81,0.59,1.67,0.9,2.37,0.9c0.62,0,0.9-0.22,0.9-0.56v-0.03c0-0.46-0.73-0.62-1.55-0.87
		c-1.05-0.31-2.24-0.8-2.24-2.25v-0.03c0-1.53,1.23-2.38,2.75-2.38c0.95,0,1.99,0.32,2.8,0.87l-0.81,1.47
		c-0.74-0.43-1.48-0.7-2.03-0.7c-0.52,0-0.79,0.22-0.79,0.52v0.03c0,0.42,0.71,0.62,1.53,0.9c1.05,0.35,2.27,0.85,2.27,2.23v0.03
		c0,1.67-1.25,2.42-2.87,2.42C222.51,56.37,221.34,56.02,220.34,55.24z"/>
</g>
<g>
	<path d="M172.21,338.01h4.08l4.39,11.83l4.39-11.83h3.98l-6.79,16.92H179L172.21,338.01z"/>
	<path d="M190.86,337.29h3.84v3.24h-3.84V337.29z M190.95,341.94h3.65v12.87h-3.65V341.94z"/>
	<path d="M197.02,353.1l1.56-2.4c1.39,1.01,2.86,1.54,4.06,1.54c1.06,0,1.54-0.38,1.54-0.96v-0.05c0-0.79-1.25-1.06-2.66-1.49
		c-1.8-0.53-3.84-1.37-3.84-3.86v-0.05c0-2.62,2.11-4.08,4.7-4.08c1.63,0,3.41,0.55,4.8,1.49l-1.39,2.52
		c-1.27-0.74-2.54-1.2-3.48-1.2c-0.89,0-1.34,0.38-1.34,0.89v0.05c0,0.72,1.22,1.06,2.62,1.54c1.8,0.6,3.89,1.46,3.89,3.82v0.05
		c0,2.86-2.14,4.15-4.92,4.15C200.74,355.05,198.73,354.45,197.02,353.1z"/>
	<path d="M210.15,337.29h3.84v3.24h-3.84V337.29z M210.25,341.94h3.65v12.87h-3.65V341.94z"/>
	<path d="M220.98,353.13v1.68h-3.65v-17.52h3.65v6.5c0.89-1.2,2.11-2.09,4.01-2.09c3,0,5.86,2.35,5.86,6.65v0.05
		c0,4.3-2.81,6.65-5.86,6.65C223.04,355.05,221.84,354.16,220.98,353.13z M227.19,348.4v-0.05c0-2.14-1.44-3.55-3.14-3.55
		s-3.12,1.42-3.12,3.55v0.05c0,2.14,1.42,3.55,3.12,3.55S227.19,350.56,227.19,348.4z"/>
	<path d="M233.7,337.29h3.65v17.52h-3.65V337.29z"/>
	<path d="M240.15,348.45v-0.05c0-3.67,2.62-6.7,6.36-6.7c4.3,0,6.26,3.34,6.26,6.99c0,0.29-0.02,0.62-0.05,0.96h-8.95
		c0.36,1.66,1.51,2.52,3.14,2.52c1.22,0,2.11-0.38,3.12-1.32l2.09,1.85c-1.2,1.49-2.93,2.4-5.26,2.4
		C243.01,355.1,240.15,352.38,240.15,348.45z M249.22,347.37c-0.22-1.63-1.18-2.74-2.71-2.74c-1.51,0-2.5,1.08-2.78,2.74H249.22z"/>
</g>
<g>
	<path d="M749.29,338.01h3.7v16.8h-3.7V338.01z"/>
	<path d="M756.8,341.94h3.65v1.82c0.84-1.08,1.92-2.06,3.77-2.06c2.76,0,4.37,1.82,4.37,4.78v8.33h-3.65v-7.18
		c0-1.73-0.82-2.62-2.21-2.62c-1.39,0-2.28,0.89-2.28,2.62v7.18h-3.65V341.94z"/>
	<path d="M772.38,345.06h-1.51v-3h1.51v-0.82c0-1.42,0.36-2.45,1.03-3.12s1.66-1.01,2.95-1.01c1.15,0,1.92,0.14,2.59,0.36v3.02
		c-0.53-0.19-1.03-0.31-1.66-0.31c-0.84,0-1.32,0.43-1.32,1.39v0.5h2.95v2.98h-2.9v9.75h-3.65V345.06z"/>
	<path d="M780.92,341.94h3.65v2.59c0.74-1.78,1.94-2.93,4.1-2.83v3.82h-0.19c-2.42,0-3.91,1.46-3.91,4.54v4.75h-3.65V341.94z"/>
	<path d="M789.59,351.11v-0.05c0-2.81,2.14-4.1,5.18-4.1c1.3,0,2.23,0.22,3.14,0.53v-0.22c0-1.51-0.94-2.35-2.76-2.35
		c-1.39,0-2.38,0.26-3.55,0.7l-0.91-2.78c1.42-0.62,2.81-1.03,4.99-1.03c1.99,0,3.43,0.53,4.34,1.44c0.96,0.96,1.39,2.38,1.39,4.1
		v7.46h-3.53v-1.39c-0.89,0.98-2.11,1.63-3.89,1.63C791.58,355.05,789.59,353.66,789.59,351.11z M797.96,350.27v-0.65
		c-0.62-0.29-1.44-0.48-2.33-0.48c-1.56,0-2.52,0.62-2.52,1.78v0.05c0,0.98,0.82,1.56,1.99,1.56
		C796.81,352.53,797.96,351.59,797.96,350.27z"/>
	<path d="M804.56,341.94h3.65v2.59c0.74-1.78,1.94-2.93,4.1-2.83v3.82h-0.19c-2.42,0-3.91,1.46-3.91,4.54v4.75h-3.65V341.94z"/>
	<path d="M813.61,348.45v-0.05c0-3.67,2.62-6.7,6.36-6.7c4.3,0,6.26,3.34,6.26,6.99c0,0.29-0.02,0.62-0.05,0.96h-8.95
		c0.36,1.66,1.51,2.52,3.14,2.52c1.22,0,2.11-0.38,3.12-1.32l2.09,1.85c-1.2,1.49-2.93,2.4-5.26,2.4
		C816.47,355.1,813.61,352.38,813.61,348.45z M822.68,347.37c-0.22-1.63-1.18-2.74-2.71-2.74c-1.51,0-2.5,1.08-2.78,2.74H822.68z"/>
	<path d="M828.37,348.4v-0.05c0-4.3,2.81-6.65,5.86-6.65c1.94,0,3.14,0.89,4.01,1.92v-6.34h3.65v17.52h-3.65v-1.85
		c-0.89,1.2-2.11,2.09-4.01,2.09C831.23,355.05,828.37,352.7,828.37,348.4z M838.28,348.4v-0.05c0-2.14-1.42-3.55-3.12-3.55
		s-3.14,1.39-3.14,3.55v0.05c0,2.14,1.44,3.55,3.14,3.55S838.28,350.54,838.28,348.4z"/>
</g>
<g>
	<path d="M861.95,252.26h2.16v7.84H869v1.96h-7.05V252.26z"/>
	<path d="M868.46,252.26h2.31l2.03,6.64l2.2-6.67h1.85l2.2,6.67l2.03-6.64h2.25l-3.35,9.88h-1.88l-2.21-6.42l-2.21,6.42h-1.88
		L868.46,252.26z"/>
	<path d="M885.02,252.26h2.16v9.81h-2.16V252.26z"/>
	<path d="M889.63,252.26h4.48c1.25,0,2.21,0.35,2.86,1c0.55,0.55,0.84,1.32,0.84,2.24v0.03c0,1.58-0.85,2.58-2.1,3.04l2.4,3.5h-2.52
		l-2.1-3.14h-1.69v3.14h-2.16V252.26z M893.97,257.02c1.05,0,1.65-0.56,1.65-1.39v-0.03c0-0.92-0.64-1.4-1.7-1.4h-2.14v2.82H893.97z
		"/>
</g>
<g>
	<path d="M1052.86,252.26h2.38l2.56,6.91l2.56-6.91h2.33l-3.96,9.88h-1.9L1052.86,252.26z"/>
	<path d="M1064.2,252.26h2.16v7.84h4.89v1.96h-7.05V252.26z"/>
	<path d="M1070.71,252.26h2.31l2.03,6.64l2.2-6.67h1.85l2.2,6.67l2.03-6.64h2.25l-3.35,9.88h-1.88l-2.21-6.42l-2.21,6.42h-1.88
		L1070.71,252.26z"/>
	<path d="M1087.27,252.26h2.16v9.81h-2.16V252.26z"/>
	<path d="M1091.88,252.26h4.48c1.25,0,2.21,0.35,2.86,1c0.55,0.55,0.84,1.32,0.84,2.24v0.03c0,1.58-0.85,2.58-2.1,3.04l2.4,3.5
		h-2.52l-2.1-3.14h-1.69v3.14h-2.16V252.26z M1096.22,257.02c1.05,0,1.65-0.56,1.65-1.39v-0.03c0-0.92-0.64-1.4-1.7-1.4h-2.14v2.82
		H1096.22z"/>
</g>
<g>
	<path d="M523.02,309.08l-1.58,0.49l-0.23-0.77l2.05-0.71h0.7v8.46h-0.94V309.08z"/>
	<path d="M526.08,315.29h1.1v1.26h-1.1V315.29z"/>
	<path d="M533.27,314.56h-4.42l-0.24-0.68l4.75-5.78h0.83v5.67h1.31v0.79h-1.31v1.99h-0.91V314.56z M533.27,313.77v-4.33l-3.53,4.33
		H533.27z"/>
	<path d="M543.88,316.57c-0.18,0.05-0.36,0.07-0.65,0.07c-0.82,0-1.31-0.35-1.46-1.08c-0.42,0.7-1.08,1.12-1.86,1.12
		c-0.83,0-1.52-0.41-1.92-1.21h-0.01c0.08,0.65,0.11,1,0.11,1.52v1.49h-0.91v-8.12h0.92v3.56c0,1.12,0.76,1.96,1.8,1.96
		s1.81-0.84,1.81-1.96v-3.56h0.91v4.59c0,0.61,0.26,0.9,0.82,0.9c0.18,0,0.32-0.02,0.44-0.06V316.57z"/>
	<path d="M545.16,310.35h0.92v1.04c0.41-0.61,0.96-1.18,2-1.18c1.01,0,1.66,0.54,1.99,1.24c0.44-0.68,1.1-1.24,2.18-1.24
		c1.43,0,2.3,0.96,2.3,2.5v3.84h-0.92v-3.62c0-1.2-0.6-1.87-1.61-1.87c-0.94,0-1.71,0.7-1.71,1.92v3.57h-0.91v-3.65
		c0-1.16-0.61-1.85-1.6-1.85s-1.73,0.82-1.73,1.96v3.54h-0.92V310.35z"/>
</g>
<g>
	<path d="M584.42,315.2l0.68-0.61c0.65,0.79,1.43,1.25,2.46,1.25c1.02,0,1.83-0.65,1.83-1.63v-0.02c0-1.04-0.97-1.62-2.35-1.62
		h-0.54l-0.19-0.56l2.65-2.99h-4.1v-0.85h5.36v0.7l-2.64,2.93c1.46,0.12,2.77,0.83,2.77,2.36v0.02c0,1.5-1.25,2.53-2.81,2.53
		C586.15,316.7,585.1,316.09,584.42,315.2z"/>
	<path d="M598.91,316.57c-0.18,0.05-0.36,0.07-0.65,0.07c-0.82,0-1.31-0.35-1.46-1.08c-0.42,0.7-1.08,1.12-1.86,1.12
		c-0.83,0-1.52-0.41-1.92-1.21h-0.01c0.08,0.65,0.11,1,0.11,1.52v1.49h-0.91v-8.12h0.92v3.56c0,1.12,0.76,1.96,1.8,1.96
		c1.04,0,1.81-0.84,1.81-1.96v-3.56h0.91v4.59c0,0.61,0.26,0.9,0.82,0.9c0.18,0,0.32-0.02,0.44-0.06V316.57z"/>
	<path d="M600.19,310.35h0.92v1.04c0.41-0.61,0.96-1.18,2-1.18c1.01,0,1.66,0.54,1.99,1.24c0.44-0.68,1.1-1.24,2.18-1.24
		c1.43,0,2.3,0.96,2.3,2.5v3.84h-0.92v-3.62c0-1.2-0.6-1.87-1.61-1.87c-0.94,0-1.71,0.7-1.71,1.92v3.57h-0.91v-3.65
		c0-1.16-0.61-1.85-1.6-1.85s-1.73,0.82-1.73,1.96v3.54h-0.92V310.35z"/>
</g>
<g>
	<path d="M655.46,315.37l0.62-0.68c0.73,0.71,1.54,1.15,2.39,1.15c1.2,0,2.03-0.79,2.03-1.86v-0.02c0-1.04-0.86-1.76-2.09-1.76
		c-0.71,0-1.27,0.22-1.76,0.48l-0.64-0.42l0.24-4.09h4.83v0.88h-4.01l-0.18,2.69c0.49-0.22,0.96-0.37,1.65-0.37
		c1.63,0,2.9,0.97,2.9,2.57v0.02c0,1.64-1.25,2.76-3,2.76C657.26,316.7,656.22,316.12,655.46,315.37z"/>
	<path d="M669.9,316.57c-0.18,0.05-0.36,0.07-0.65,0.07c-0.82,0-1.31-0.35-1.46-1.08c-0.42,0.7-1.08,1.12-1.86,1.12
		c-0.83,0-1.52-0.41-1.92-1.21H664c0.08,0.65,0.11,1,0.11,1.52v1.49h-0.91v-8.12h0.92v3.56c0,1.12,0.76,1.96,1.8,1.96
		c1.04,0,1.81-0.84,1.81-1.96v-3.56h0.91v4.59c0,0.61,0.26,0.9,0.82,0.9c0.18,0,0.32-0.02,0.44-0.06V316.57z"/>
	<path d="M671.18,310.35h0.92v1.04c0.41-0.61,0.96-1.18,2-1.18c1.01,0,1.66,0.54,1.99,1.24c0.44-0.68,1.1-1.24,2.18-1.24
		c1.43,0,2.3,0.96,2.3,2.5v3.84h-0.92v-3.62c0-1.2-0.6-1.87-1.61-1.87c-0.94,0-1.71,0.7-1.71,1.92v3.57h-0.91v-3.65
		c0-1.16-0.61-1.85-1.6-1.85s-1.73,0.82-1.73,1.96v3.54h-0.92V310.35z"/>
</g>
<g>
	<path d="M759.85,314.3v-0.02c0-1,0.72-1.7,1.73-2.06c-0.78-0.36-1.44-0.96-1.44-1.93v-0.02c0-1.29,1.33-2.22,2.87-2.22
		s2.87,0.92,2.87,2.22v0.02c0,0.97-0.66,1.57-1.44,1.93c1,0.37,1.73,1.06,1.73,2.05v0.02c0,1.43-1.37,2.39-3.15,2.39
		C761.21,316.67,759.85,315.7,759.85,314.3z M765.19,314.28v-0.02c0-0.94-0.97-1.59-2.19-1.59c-1.22,0-2.2,0.66-2.2,1.59v0.02
		c0,0.85,0.82,1.57,2.2,1.57C764.38,315.85,765.19,315.13,765.19,314.28z M764.92,310.34v-0.02c0-0.83-0.83-1.45-1.92-1.45
		c-1.09,0-1.92,0.61-1.92,1.45v0.02c0,0.91,0.85,1.54,1.92,1.54S764.92,311.25,764.92,310.34z"/>
	<path d="M774.52,316.57c-0.18,0.05-0.36,0.07-0.65,0.07c-0.82,0-1.31-0.35-1.46-1.08c-0.42,0.7-1.08,1.12-1.86,1.12
		c-0.83,0-1.52-0.41-1.92-1.21h-0.01c0.08,0.65,0.11,1,0.11,1.52v1.49h-0.91v-8.12h0.92v3.56c0,1.12,0.76,1.96,1.8,1.96
		c1.04,0,1.81-0.84,1.81-1.96v-3.56h0.91v4.59c0,0.61,0.26,0.9,0.82,0.9c0.18,0,0.32-0.02,0.44-0.06V316.57z"/>
	<path d="M775.79,310.35h0.92v1.04c0.41-0.61,0.96-1.18,2-1.18c1.01,0,1.66,0.54,1.99,1.24c0.44-0.68,1.1-1.24,2.18-1.24
		c1.43,0,2.3,0.96,2.3,2.5v3.84h-0.92v-3.62c0-1.2-0.6-1.87-1.61-1.87c-0.94,0-1.71,0.7-1.71,1.92v3.57h-0.91v-3.65
		c0-1.16-0.61-1.85-1.6-1.85s-1.73,0.82-1.73,1.96v3.54h-0.92V310.35z"/>
</g>
<g>
	<path d="M972.97,309.08l-1.58,0.49l-0.23-0.77l2.05-0.71h0.7v8.46h-0.94V309.08z"/>
	<path d="M980.3,314.56h-4.43l-0.24-0.68l4.75-5.78h0.83v5.67h1.31v0.79h-1.31v1.99h-0.91V314.56z M980.3,313.77v-4.33l-3.53,4.33
		H980.3z"/>
	<path d="M990.91,316.57c-0.18,0.05-0.36,0.07-0.65,0.07c-0.82,0-1.31-0.35-1.46-1.08c-0.42,0.7-1.08,1.12-1.86,1.12
		c-0.83,0-1.52-0.41-1.92-1.21h-0.01c0.08,0.65,0.11,1,0.11,1.52v1.49h-0.91v-8.12h0.92v3.56c0,1.12,0.76,1.96,1.8,1.96
		c1.04,0,1.81-0.84,1.81-1.96v-3.56h0.91v4.59c0,0.61,0.26,0.9,0.82,0.9c0.18,0,0.32-0.02,0.44-0.06V316.57z"/>
	<path d="M992.18,310.35h0.92v1.04c0.41-0.61,0.96-1.18,2-1.18c1.01,0,1.66,0.54,1.99,1.24c0.44-0.68,1.1-1.24,2.18-1.24
		c1.43,0,2.3,0.96,2.3,2.5v3.84h-0.92v-3.62c0-1.2-0.6-1.87-1.61-1.87c-0.94,0-1.71,0.7-1.71,1.92v3.57h-0.91v-3.65
		c0-1.16-0.61-1.85-1.6-1.85s-1.73,0.82-1.73,1.96v3.54h-0.92V310.35z"/>
</g>
<g>
	<path d="M1108.87,309.08l-1.58,0.49l-0.23-0.77l2.05-0.71h0.7v8.46h-0.94V309.08z"/>
	<path d="M1111.76,312.38v-0.02c0-2.35,1.4-4.34,3.56-4.34s3.53,1.97,3.53,4.32v0.02c0,2.35-1.39,4.34-3.55,4.34
		C1113.12,316.7,1111.76,314.73,1111.76,312.38z M1117.86,312.38v-0.02c0-1.83-1.01-3.48-2.57-3.48c-1.57,0-2.55,1.61-2.55,3.45
		v0.02c0,1.83,1.01,3.48,2.58,3.48S1117.86,314.21,1117.86,312.38z"/>
	<path d="M1120.34,312.38v-0.02c0-2.35,1.4-4.34,3.56-4.34s3.53,1.97,3.53,4.32v0.02c0,2.35-1.39,4.34-3.55,4.34
		C1121.71,316.7,1120.34,314.73,1120.34,312.38z M1126.44,312.38v-0.02c0-1.83-1.01-3.48-2.57-3.48c-1.57,0-2.55,1.61-2.55,3.45
		v0.02c0,1.83,1.01,3.48,2.58,3.48S1126.44,314.21,1126.44,312.38z"/>
	<path d="M1128.92,312.38v-0.02c0-2.35,1.4-4.34,3.56-4.34s3.53,1.97,3.53,4.32v0.02c0,2.35-1.39,4.34-3.55,4.34
		C1130.29,316.7,1128.92,314.73,1128.92,312.38z M1135.02,312.38v-0.02c0-1.83-1.01-3.48-2.57-3.48c-1.57,0-2.55,1.61-2.55,3.45
		v0.02c0,1.83,1.01,3.48,2.58,3.48S1135.02,314.21,1135.02,312.38z"/>
	<path d="M1144.49,316.57c-0.18,0.05-0.36,0.07-0.65,0.07c-0.82,0-1.31-0.35-1.46-1.08c-0.42,0.7-1.08,1.12-1.86,1.12
		c-0.83,0-1.52-0.41-1.92-1.21h-0.01c0.08,0.65,0.11,1,0.11,1.52v1.49h-0.91v-8.12h0.92v3.56c0,1.12,0.76,1.96,1.8,1.96
		c1.04,0,1.81-0.84,1.81-1.96v-3.56h0.91v4.59c0,0.61,0.26,0.9,0.82,0.9c0.18,0,0.32-0.02,0.44-0.06V316.57z"/>
	<path d="M1145.77,310.35h0.92v1.04c0.41-0.61,0.96-1.18,2-1.18c1.01,0,1.66,0.54,1.99,1.24c0.44-0.68,1.1-1.24,2.18-1.24
		c1.43,0,2.3,0.96,2.3,2.5v3.84h-0.92v-3.62c0-1.2-0.6-1.87-1.61-1.87c-0.94,0-1.71,0.7-1.71,1.92v3.57h-0.91v-3.65
		c0-1.16-0.61-1.85-1.6-1.85s-1.73,0.82-1.73,1.96v3.54h-0.92V310.35z"/>
</g>
<g>
	<path d="M676.3,241.07h0.79v6.27h3.94v0.73h-4.73V241.07z"/>
	<path d="M681.94,245.51v-0.02c0-1.46,1.14-2.7,2.7-2.7c1.55,0,2.69,1.22,2.69,2.68v0.02c0,1.46-1.15,2.7-2.71,2.7
		C683.07,248.19,681.94,246.97,681.94,245.51z M686.53,245.51v-0.02c0-1.11-0.83-2.02-1.92-2.02c-1.12,0-1.89,0.91-1.89,2v0.02
		c0,1.11,0.82,2.01,1.91,2.01C685.75,247.5,686.53,246.6,686.53,245.51z"/>
	<path d="M688.03,242.9h0.82l1.36,4.15l1.39-4.17h0.64l1.4,4.17l1.36-4.15h0.8l-1.82,5.21h-0.67l-1.39-4.08l-1.4,4.08h-0.68
		L688.03,242.9z"/>
	<path d="M699.69,246.57v-0.02c0-1.09,0.9-1.67,2.21-1.67c0.66,0,1.13,0.09,1.59,0.22v-0.18c0-0.93-0.57-1.41-1.54-1.41
		c-0.61,0-1.09,0.16-1.57,0.38l-0.23-0.63c0.57-0.26,1.13-0.43,1.88-0.43c0.73,0,1.29,0.19,1.67,0.57c0.35,0.35,0.53,0.85,0.53,1.51
		v3.16h-0.74v-0.78c-0.36,0.47-0.96,0.89-1.87,0.89C700.66,248.18,699.69,247.63,699.69,246.57z M703.5,246.17v-0.5
		c-0.38-0.11-0.89-0.22-1.52-0.22c-0.97,0-1.51,0.42-1.51,1.07v0.02c0,0.65,0.6,1.03,1.3,1.03
		C702.72,247.57,703.5,246.99,703.5,246.17z"/>
	<path d="M706.09,246.7v-3.12h-0.72v-0.68h0.72v-1.56h0.77v1.56h1.64v0.68h-1.64v3.02c0,0.63,0.35,0.86,0.87,0.86
		c0.26,0,0.48-0.05,0.75-0.18v0.66c-0.27,0.14-0.56,0.22-0.93,0.22C706.72,248.16,706.09,247.75,706.09,246.7z"/>
	<path d="M709.86,242.9h0.77v0.87c0.34-0.51,0.8-0.98,1.67-0.98c0.84,0,1.38,0.45,1.66,1.03c0.37-0.57,0.92-1.03,1.82-1.03
		c1.19,0,1.92,0.8,1.92,2.08v3.2h-0.77v-3.02c0-1-0.5-1.56-1.34-1.56c-0.78,0-1.43,0.58-1.43,1.6v2.98h-0.76v-3.04
		c0-0.97-0.51-1.54-1.33-1.54s-1.44,0.68-1.44,1.63v2.95h-0.77V242.9z"/>
	<path d="M719.02,245.51v-0.02c0-1.46,1.14-2.7,2.7-2.7c1.55,0,2.69,1.22,2.69,2.68v0.02c0,1.46-1.15,2.7-2.71,2.7
		C720.15,248.19,719.02,246.97,719.02,245.51z M723.61,245.51v-0.02c0-1.11-0.83-2.02-1.92-2.02c-1.12,0-1.89,0.91-1.89,2v0.02
		c0,1.11,0.82,2.01,1.91,2.01C722.83,247.5,723.61,246.6,723.61,245.51z"/>
	<path d="M725.37,247.41l0.39-0.55c0.56,0.42,1.18,0.66,1.79,0.66c0.62,0,1.07-0.32,1.07-0.82v-0.02c0-0.52-0.61-0.72-1.29-0.91
		c-0.81-0.23-1.71-0.51-1.71-1.46v-0.02c0-0.89,0.74-1.48,1.76-1.48c0.63,0,1.33,0.22,1.86,0.57l-0.35,0.58
		c-0.48-0.31-1.03-0.5-1.53-0.5c-0.61,0-1,0.32-1,0.75v0.02c0,0.49,0.64,0.68,1.33,0.89c0.8,0.24,1.66,0.55,1.66,1.48v0.02
		c0,0.98-0.81,1.55-1.84,1.55C726.77,248.17,725.95,247.88,725.37,247.41z"/>
	<path d="M730.78,242.9h0.77v1.04c0.42-0.62,1.03-1.15,1.98-1.15c1.24,0,2.47,0.98,2.47,2.68v0.02c0,1.69-1.22,2.69-2.47,2.69
		c-0.96,0-1.58-0.52-1.98-1.1v2.59h-0.77V242.9z M735.2,245.5v-0.02c0-1.22-0.84-2-1.82-2c-0.96,0-1.87,0.81-1.87,1.99v0.02
		c0,1.2,0.91,2,1.87,2C734.38,247.49,735.2,246.75,735.2,245.5z"/>
	<path d="M737.42,240.77h0.77v3.03c0.34-0.56,0.88-1.01,1.77-1.01c1.25,0,1.98,0.84,1.98,2.07v3.21h-0.77v-3.02
		c0-0.96-0.52-1.56-1.43-1.56c-0.89,0-1.55,0.65-1.55,1.62v2.96h-0.77V240.77z"/>
	<path d="M743.26,245.5v-0.02c0-1.49,1.05-2.69,2.48-2.69c1.53,0,2.41,1.22,2.41,2.73c0,0.1,0,0.16-0.01,0.25h-4.1
		c0.11,1.12,0.9,1.75,1.82,1.75c0.71,0,1.21-0.29,1.63-0.73l0.48,0.43c-0.52,0.58-1.15,0.97-2.13,0.97
		C744.42,248.19,743.26,247.1,743.26,245.5z M747.36,245.2c-0.08-0.94-0.62-1.76-1.65-1.76c-0.9,0-1.58,0.75-1.68,1.76H747.36z"/>
	<path d="M749.5,242.9h0.77v1.35c0.38-0.86,1.13-1.48,2.11-1.44v0.83h-0.06c-1.13,0-2.05,0.81-2.05,2.37v2.06h-0.77V242.9z"/>
	<path d="M753.57,240.92h0.88v0.85h-0.88V240.92z M753.62,242.9h0.77v5.17h-0.77V242.9z"/>
	<path d="M755.86,245.51v-0.02c0-1.46,1.14-2.7,2.65-2.7c0.98,0,1.59,0.41,2.07,0.92l-0.51,0.54c-0.41-0.43-0.87-0.78-1.57-0.78
		c-1.05,0-1.85,0.89-1.85,2v0.02c0,1.12,0.82,2.01,1.9,2.01c0.66,0,1.17-0.33,1.58-0.77l0.49,0.46c-0.52,0.58-1.14,1-2.11,1
		C757,248.19,755.86,246.96,755.86,245.51z"/>
	<path d="M683.6,258.7v-3.12h-0.72v-0.68h0.72v-1.56h0.77v1.56h1.64v0.68h-1.64v3.02c0,0.63,0.35,0.86,0.87,0.86
		c0.26,0,0.48-0.05,0.75-0.18v0.66c-0.27,0.14-0.56,0.22-0.93,0.22C684.23,260.16,683.6,259.75,683.6,258.7z"/>
	<path d="M687.37,254.9h0.77v1.35c0.38-0.86,1.13-1.48,2.11-1.44v0.83h-0.06c-1.13,0-2.05,0.81-2.05,2.37v2.06h-0.77V254.9z"/>
	<path d="M690.78,258.57v-0.02c0-1.09,0.9-1.67,2.21-1.67c0.66,0,1.13,0.09,1.59,0.22v-0.18c0-0.93-0.57-1.41-1.54-1.41
		c-0.61,0-1.09,0.16-1.57,0.38l-0.23-0.63c0.57-0.26,1.13-0.43,1.88-0.43c0.73,0,1.29,0.19,1.67,0.57c0.35,0.35,0.53,0.85,0.53,1.51
		v3.16h-0.74v-0.78c-0.36,0.47-0.96,0.89-1.87,0.89C691.75,260.18,690.78,259.63,690.78,258.57z M694.59,258.17v-0.5
		c-0.38-0.11-0.89-0.22-1.52-0.22c-0.97,0-1.51,0.42-1.51,1.07v0.02c0,0.65,0.6,1.03,1.3,1.03
		C693.81,259.57,694.59,258.99,694.59,258.17z"/>
	<path d="M696.96,254.9h0.77v0.9c0.34-0.56,0.88-1.01,1.77-1.01c1.25,0,1.98,0.84,1.98,2.07v3.21h-0.77v-3.02
		c0-0.96-0.52-1.56-1.43-1.56c-0.89,0-1.55,0.65-1.55,1.62v2.96h-0.77V254.9z"/>
	<path d="M702.69,259.41l0.39-0.55c0.56,0.42,1.18,0.66,1.79,0.66c0.62,0,1.07-0.32,1.07-0.82v-0.02c0-0.52-0.61-0.72-1.29-0.91
		c-0.81-0.23-1.71-0.51-1.71-1.46v-0.02c0-0.89,0.74-1.48,1.76-1.48c0.63,0,1.33,0.22,1.86,0.57l-0.35,0.58
		c-0.48-0.31-1.03-0.5-1.53-0.5c-0.61,0-1,0.32-1,0.75v0.02c0,0.49,0.64,0.68,1.33,0.89c0.8,0.24,1.66,0.55,1.66,1.48v0.02
		c0,0.98-0.81,1.55-1.84,1.55C704.09,260.17,703.27,259.88,702.69,259.41z"/>
	<path d="M708.1,254.9h0.77v0.87c0.34-0.51,0.8-0.98,1.67-0.98c0.84,0,1.38,0.45,1.66,1.03c0.37-0.57,0.92-1.03,1.82-1.03
		c1.19,0,1.92,0.8,1.92,2.08v3.2h-0.77v-3.02c0-1-0.5-1.56-1.34-1.56c-0.78,0-1.43,0.58-1.43,1.6v2.98h-0.76v-3.04
		c0-0.97-0.51-1.54-1.33-1.54s-1.44,0.68-1.44,1.63v2.95h-0.77V254.9z"/>
	<path d="M717.6,252.92h0.88v0.85h-0.88V252.92z M717.65,254.9h0.77v5.17h-0.77V254.9z"/>
	<path d="M720.48,258.7v-3.12h-0.72v-0.68h0.72v-1.56h0.77v1.56h1.64v0.68h-1.64v3.02c0,0.63,0.35,0.86,0.87,0.86
		c0.26,0,0.48-0.05,0.75-0.18v0.66c-0.27,0.14-0.56,0.22-0.93,0.22C721.11,260.16,720.48,259.75,720.48,258.7z"/>
	<path d="M724.52,258.7v-3.12h-0.72v-0.68h0.72v-1.56h0.77v1.56h1.64v0.68h-1.64v3.02c0,0.63,0.35,0.86,0.87,0.86
		c0.26,0,0.48-0.05,0.75-0.18v0.66c-0.27,0.14-0.56,0.22-0.93,0.22C725.15,260.16,724.52,259.75,724.52,258.7z"/>
	<path d="M727.9,258.57v-0.02c0-1.09,0.9-1.67,2.21-1.67c0.66,0,1.13,0.09,1.59,0.22v-0.18c0-0.93-0.57-1.41-1.54-1.41
		c-0.61,0-1.09,0.16-1.57,0.38l-0.23-0.63c0.57-0.26,1.13-0.43,1.88-0.43c0.73,0,1.29,0.19,1.67,0.57c0.35,0.35,0.53,0.85,0.53,1.51
		v3.16h-0.74v-0.78c-0.36,0.47-0.96,0.89-1.87,0.89C728.87,260.18,727.9,259.63,727.9,258.57z M731.71,258.17v-0.5
		c-0.38-0.11-0.89-0.22-1.52-0.22c-0.97,0-1.51,0.42-1.51,1.07v0.02c0,0.65,0.6,1.03,1.3,1.03
		C730.93,259.57,731.71,258.99,731.71,258.17z"/>
	<path d="M734.08,254.9h0.77v0.9c0.34-0.56,0.88-1.01,1.77-1.01c1.25,0,1.98,0.84,1.98,2.07v3.21h-0.77v-3.02
		c0-0.96-0.52-1.56-1.43-1.56c-0.89,0-1.55,0.65-1.55,1.62v2.96h-0.77V254.9z"/>
	<path d="M739.92,257.51v-0.02c0-1.46,1.14-2.7,2.65-2.7c0.98,0,1.59,0.41,2.07,0.92l-0.51,0.54c-0.41-0.43-0.87-0.78-1.57-0.78
		c-1.05,0-1.85,0.89-1.85,2v0.02c0,1.12,0.82,2.01,1.9,2.01c0.66,0,1.17-0.33,1.58-0.77l0.49,0.46c-0.52,0.58-1.14,1-2.11,1
		C741.06,260.19,739.92,258.96,739.92,257.51z"/>
	<path d="M745.48,257.5v-0.02c0-1.49,1.05-2.69,2.48-2.69c1.53,0,2.41,1.22,2.41,2.73c0,0.1,0,0.16-0.01,0.25h-4.1
		c0.11,1.12,0.9,1.75,1.82,1.75c0.71,0,1.21-0.29,1.63-0.73l0.48,0.43c-0.52,0.58-1.15,0.97-2.13,0.97
		C746.64,260.19,745.48,259.1,745.48,257.5z M749.59,257.2c-0.08-0.94-0.62-1.76-1.65-1.76c-0.9,0-1.58,0.75-1.68,1.76H749.59z"/>
	<path d="M699.16,266.9h0.82l1.36,4.15l1.39-4.17h0.64l1.4,4.17l1.36-4.15h0.8l-1.82,5.21h-0.67l-1.39-4.08l-1.4,4.08h-0.68
		L699.16,266.9z"/>
	<path d="M708.23,264.92h0.88v0.85h-0.88V264.92z M708.28,266.9h0.77v5.17h-0.77V266.9z"/>
	<path d="M710.84,266.9h0.77v0.9c0.34-0.56,0.88-1.01,1.77-1.01c1.25,0,1.98,0.84,1.98,2.07v3.21h-0.77v-3.02
		c0-0.96-0.52-1.56-1.43-1.56c-0.89,0-1.55,0.65-1.55,1.62v2.96h-0.77V266.9z"/>
	<path d="M716.7,269.5v-0.02c0-1.69,1.23-2.69,2.47-2.69c0.96,0,1.58,0.52,1.98,1.1v-3.12h0.77v7.3h-0.77v-1.04
		c-0.42,0.62-1.03,1.15-1.98,1.15C717.93,272.18,716.7,271.2,716.7,269.5z M721.17,269.49v-0.02c0-1.19-0.91-1.99-1.87-1.99
		c-1,0-1.82,0.74-1.82,1.99v0.02c0,1.22,0.84,2,1.82,2C720.26,271.49,721.17,270.68,721.17,269.49z"/>
	<path d="M723.32,269.51v-0.02c0-1.46,1.14-2.7,2.7-2.7c1.55,0,2.69,1.22,2.69,2.68v0.02c0,1.46-1.15,2.7-2.71,2.7
		C724.45,272.19,723.32,270.97,723.32,269.51z M727.91,269.51v-0.02c0-1.11-0.83-2.02-1.92-2.02c-1.12,0-1.89,0.91-1.89,2v0.02
		c0,1.11,0.82,2.01,1.91,2.01C727.13,271.5,727.91,270.6,727.91,269.51z"/>
	<path d="M729.41,266.9h0.82l1.36,4.15l1.39-4.17h0.64l1.4,4.17l1.36-4.15h0.8l-1.82,5.21h-0.67l-1.39-4.08l-1.4,4.08h-0.68
		L729.41,266.9z"/>
</g>
<g>
	<path d="M712.36,157.93v-0.02c0-0.83,0.6-1.42,1.44-1.72c-0.65-0.3-1.2-0.8-1.2-1.61v-0.02c0-1.08,1.11-1.85,2.39-1.85
		s2.39,0.77,2.39,1.85v0.02c0,0.81-0.55,1.31-1.2,1.61c0.83,0.31,1.44,0.88,1.44,1.71v0.02c0,1.19-1.14,1.99-2.63,1.99
		S712.36,159.09,712.36,157.93z M716.82,157.91v-0.02c0-0.78-0.81-1.33-1.83-1.33s-1.83,0.55-1.83,1.33v0.02
		c0,0.71,0.68,1.31,1.83,1.31S716.82,158.62,716.82,157.91z M716.59,154.63v-0.02c0-0.69-0.69-1.21-1.6-1.21s-1.6,0.51-1.6,1.21
		v0.02c0,0.76,0.71,1.28,1.6,1.28S716.59,155.39,716.59,154.63z"/>
	<path d="M718.76,156.33v-0.02c0-1.96,1.17-3.62,2.97-3.62s2.94,1.64,2.94,3.6v0.02c0,1.96-1.16,3.62-2.96,3.62
		C719.9,159.92,718.76,158.29,718.76,156.33z M723.85,156.33v-0.02c0-1.53-0.84-2.9-2.14-2.9c-1.31,0-2.13,1.34-2.13,2.88v0.02
		c0,1.53,0.84,2.9,2.15,2.9S723.85,157.86,723.85,156.33z"/>
	<path d="M725.81,154.54v-0.02c0-0.95,0.64-1.79,1.6-1.79c0.94,0,1.57,0.83,1.57,1.77v0.02c0,0.95-0.64,1.79-1.59,1.79
		S725.81,155.48,725.81,154.54z M726.48,154.5v0.02c0,0.7,0.41,1.23,0.93,1.23c0.54,0,0.91-0.54,0.91-1.21v-0.02
		c0-0.7-0.42-1.23-0.93-1.23C726.84,153.29,726.48,153.84,726.48,154.5z M731.67,152.81h0.71l-2.7,3.67l-2.43,3.33h-0.72l2.7-3.65
		L731.67,152.81z M729.94,158.12v-0.02c0-0.95,0.64-1.79,1.59-1.79c0.95,0,1.57,0.83,1.57,1.77v0.02c0,0.95-0.63,1.79-1.59,1.79
		C730.57,159.88,729.94,159.05,729.94,158.12z M732.44,158.12v-0.02c0-0.7-0.41-1.23-0.93-1.23c-0.54,0-0.91,0.55-0.91,1.21v0.02
		c0,0.7,0.41,1.23,0.93,1.23C732.08,159.33,732.44,158.79,732.44,158.12z"/>
</g>
<line class="st1" x1="475.95" y1="299.48" x2="475.95" y2="290.97"/>
<line class="st1" x1="113.94" y1="29.16" x2="113.94" y2="20.66"/>
<line class="st1" x1="157.19" y1="29.16" x2="157.19" y2="20.66"/>
<line class="st1" x1="200.44" y1="29.16" x2="200.44" y2="20.66"/>
<line class="st1" x1="243.7" y1="29.16" x2="243.7" y2="20.66"/>
<line class="st1" x1="286.95" y1="29.16" x2="286.95" y2="20.66"/>
<line class="st1" x1="330.2" y1="29.16" x2="330.2" y2="20.66"/>
<line class="st1" x1="373.45" y1="29.16" x2="373.45" y2="20.66"/>
<line class="st1" x1="416.71" y1="29.16" x2="416.71" y2="20.66"/>
<line class="st1" x1="459.96" y1="29.16" x2="459.96" y2="20.66"/>
<line class="st1" x1="503.21" y1="29.16" x2="503.21" y2="20.66"/>
<line class="st1" x1="546.46" y1="29.16" x2="546.46" y2="20.66"/>
<line class="st1" x1="589.72" y1="29.16" x2="589.72" y2="20.66"/>
<line class="st1" x1="632.97" y1="29.16" x2="632.97" y2="20.66"/>
<line class="st1" x1="676.22" y1="29.16" x2="676.22" y2="20.66"/>
<line class="st1" x1="719.47" y1="29.16" x2="719.47" y2="20.66"/>
<line class="st1" x1="762.73" y1="29.16" x2="762.73" y2="20.66"/>
<line class="st1" x1="805.98" y1="29.16" x2="805.98" y2="20.66"/>
<line class="st1" x1="849.23" y1="29.16" x2="849.23" y2="20.66"/>
<line class="st1" x1="892.49" y1="29.16" x2="892.49" y2="20.66"/>
<line class="st1" x1="935.74" y1="29.16" x2="935.74" y2="20.66"/>
<line class="st1" x1="978.99" y1="29.16" x2="978.99" y2="20.66"/>
<g>
	<path d="M393.13,309.02h-4.62v-0.86h5.7v0.71l-3.81,7.69h-1.05L393.13,309.02z"/>
	<path d="M395.35,312.38v-0.02c0-2.35,1.4-4.34,3.56-4.34s3.53,1.97,3.53,4.32v0.02c0,2.35-1.39,4.34-3.55,4.34
		C396.72,316.7,395.35,314.73,395.35,312.38z M401.46,312.38v-0.02c0-1.83-1.01-3.48-2.57-3.48c-1.57,0-2.55,1.61-2.55,3.45v0.02
		c0,1.83,1.01,3.48,2.58,3.48S401.46,314.21,401.46,312.38z"/>
	<path d="M403.93,312.38v-0.02c0-2.35,1.4-4.34,3.56-4.34s3.53,1.97,3.53,4.32v0.02c0,2.35-1.39,4.34-3.55,4.34
		C405.3,316.7,403.93,314.73,403.93,312.38z M410.04,312.38v-0.02c0-1.83-1.01-3.48-2.57-3.48c-1.57,0-2.55,1.61-2.55,3.45v0.02
		c0,1.83,1.01,3.48,2.58,3.48S410.04,314.21,410.04,312.38z"/>
	<path d="M412.8,310.35h0.92v1.08c0.41-0.67,1.06-1.21,2.12-1.21c1.5,0,2.37,1.01,2.37,2.48v3.85h-0.92v-3.62
		c0-1.15-0.62-1.87-1.72-1.87c-1.07,0-1.86,0.78-1.86,1.94v3.55h-0.92V310.35z"/>
	<path d="M420.19,310.35h0.92v1.04c0.41-0.61,0.96-1.18,2-1.18c1.01,0,1.66,0.54,1.99,1.24c0.44-0.68,1.1-1.24,2.18-1.24
		c1.43,0,2.3,0.96,2.3,2.5v3.84h-0.92v-3.62c0-1.2-0.6-1.87-1.61-1.87c-0.94,0-1.71,0.7-1.71,1.92v3.57h-0.91v-3.65
		c0-1.16-0.61-1.85-1.6-1.85s-1.73,0.82-1.73,1.96v3.54h-0.92V310.35z"/>
</g>
<g>
	<path d="M451.08,7.48l-1.58,0.49l-0.23-0.77l2.05-0.71h0.7v8.46h-0.94V7.48z"/>
	<path d="M460.96,14.96c-0.18,0.05-0.36,0.07-0.65,0.07c-0.82,0-1.31-0.35-1.46-1.08c-0.42,0.7-1.08,1.12-1.86,1.12
		c-0.83,0-1.52-0.41-1.92-1.21h-0.01c0.08,0.65,0.11,1,0.11,1.52v1.49h-0.91V8.75h0.92v3.56c0,1.12,0.76,1.96,1.8,1.96
		s1.81-0.84,1.81-1.96V8.75h0.91v4.59c0,0.61,0.26,0.9,0.82,0.9c0.18,0,0.32-0.02,0.44-0.06V14.96z"/>
	<path d="M462.24,8.75h0.92v1.04c0.41-0.61,0.96-1.18,2-1.18c1.01,0,1.66,0.54,1.99,1.24c0.44-0.68,1.1-1.24,2.18-1.24
		c1.43,0,2.3,0.96,2.3,2.5v3.84h-0.92v-3.62c0-1.2-0.6-1.87-1.61-1.87c-0.94,0-1.71,0.7-1.71,1.92v3.57h-0.91V11.3
		c0-1.16-0.61-1.85-1.6-1.85s-1.73,0.82-1.73,1.96v3.54h-0.92V8.75z"/>
</g>
<g>
	<path d="M321.39,7.48l-1.58,0.49l-0.23-0.77l2.05-0.71h0.7v8.46h-0.94V7.48z"/>
	<path d="M324.57,8.75h0.92v1.08c0.41-0.67,1.06-1.21,2.12-1.21c1.5,0,2.37,1.01,2.37,2.48v3.85h-0.92v-3.62
		c0-1.15-0.62-1.87-1.72-1.87c-1.07,0-1.86,0.78-1.86,1.94v3.55h-0.92V8.75z"/>
	<path d="M331.96,8.75h0.92v1.04c0.41-0.61,0.96-1.18,2-1.18c1.01,0,1.66,0.54,1.99,1.24c0.44-0.68,1.1-1.24,2.18-1.24
		c1.43,0,2.3,0.96,2.3,2.5v3.84h-0.92v-3.62c0-1.2-0.6-1.87-1.61-1.87c-0.94,0-1.71,0.7-1.71,1.92v3.57h-0.91V11.3
		c0-1.16-0.61-1.85-1.6-1.85s-1.73,0.82-1.73,1.96v3.54h-0.92V8.75z"/>
</g>
<g>
	<path d="M578.93,7.48l-1.58,0.49l-0.23-0.77l2.05-0.71h0.7v8.46h-0.94V7.48z"/>
	<path d="M582.11,8.75h0.92v1.04c0.41-0.61,0.96-1.18,2-1.18c1.01,0,1.66,0.54,1.99,1.24c0.44-0.68,1.1-1.24,2.18-1.24
		c1.43,0,2.3,0.96,2.3,2.5v3.84h-0.92v-3.62c0-1.2-0.6-1.87-1.61-1.87c-0.94,0-1.71,0.7-1.71,1.92v3.57h-0.91V11.3
		c0-1.16-0.61-1.85-1.6-1.85s-1.73,0.82-1.73,1.96v3.54h-0.92V8.75z"/>
	<path d="M593.49,8.75h0.92v1.04c0.41-0.61,0.96-1.18,2-1.18c1.01,0,1.66,0.54,1.99,1.24c0.44-0.68,1.1-1.24,2.18-1.24
		c1.43,0,2.3,0.96,2.3,2.5v3.84h-0.92v-3.62c0-1.2-0.6-1.87-1.61-1.87c-0.94,0-1.71,0.7-1.71,1.92v3.57h-0.91V11.3
		c0-1.16-0.61-1.85-1.6-1.85s-1.73,0.82-1.73,1.96v3.54h-0.92V8.75z"/>
</g>
<g>
	<path d="M714.15,7.48l-1.58,0.49l-0.23-0.77l2.05-0.71h0.7v8.46h-0.94V7.48z"/>
	<path d="M717.33,8.75h0.92v1.04c0.41-0.61,0.96-1.18,2-1.18c1.01,0,1.66,0.54,1.99,1.24c0.44-0.68,1.1-1.24,2.18-1.24
		c1.43,0,2.3,0.96,2.3,2.5v3.84h-0.92v-3.62c0-1.2-0.6-1.87-1.61-1.87c-0.94,0-1.71,0.7-1.71,1.92v3.57h-0.91V11.3
		c0-1.16-0.61-1.85-1.6-1.85s-1.73,0.82-1.73,1.96v3.54h-0.92V8.75z"/>
</g>
<g>
	<path d="M841.07,7.48l-1.58,0.49l-0.23-0.77l2.05-0.71h0.7v8.46h-0.94V7.48z"/>
	<path d="M844.25,6.19h0.92v6.04l3.35-3.49h1.15l-2.6,2.66l2.69,3.54h-1.1l-2.22-2.89l-1.26,1.27v1.62h-0.92V6.19z"/>
	<path d="M851.08,8.75H852v1.04c0.41-0.61,0.96-1.18,2-1.18c1.01,0,1.66,0.54,1.99,1.24c0.44-0.68,1.1-1.24,2.18-1.24
		c1.43,0,2.3,0.96,2.3,2.5v3.84h-0.92v-3.62c0-1.2-0.6-1.87-1.61-1.87c-0.94,0-1.71,0.7-1.71,1.92v3.57h-0.91V11.3
		c0-1.16-0.61-1.85-1.6-1.85S852,10.27,852,11.41v3.54h-0.92V8.75z"/>
</g>
<line class="st1" x1="414.95" y1="299.48" x2="414.95" y2="290.97"/>
<g>
	<path d="M6.49,314.56H2.06l-0.24-0.68l4.75-5.78H7.4v5.67h1.31v0.79H7.4v1.99H6.49V314.56z M6.49,313.77v-4.33l-3.53,4.33H6.49z"/>
	<path d="M10.1,312.38v-0.02c0-2.35,1.4-4.34,3.56-4.34s3.53,1.97,3.53,4.32v0.02c0,2.35-1.39,4.34-3.55,4.34
		C11.47,316.7,10.1,314.73,10.1,312.38z M16.21,312.38v-0.02c0-1.83-1.01-3.48-2.57-3.48c-1.57,0-2.55,1.61-2.55,3.45v0.02
		c0,1.83,1.01,3.48,2.58,3.48S16.21,314.21,16.21,312.38z"/>
	<path d="M18.68,312.38v-0.02c0-2.35,1.4-4.34,3.56-4.34s3.53,1.97,3.53,4.32v0.02c0,2.35-1.39,4.34-3.55,4.34
		C20.05,316.7,18.68,314.73,18.68,312.38z M24.79,312.38v-0.02c0-1.83-1.01-3.48-2.57-3.48c-1.57,0-2.55,1.61-2.55,3.45v0.02
		c0,1.83,1.01,3.48,2.58,3.48S24.79,314.21,24.79,312.38z"/>
	<path d="M27.55,310.35h0.92v1.08c0.41-0.67,1.06-1.21,2.12-1.21c1.5,0,2.37,1.01,2.37,2.48v3.85h-0.92v-3.62
		c0-1.15-0.62-1.87-1.72-1.87c-1.07,0-1.86,0.78-1.86,1.94v3.55h-0.92V310.35z"/>
	<path d="M34.94,310.35h0.92v1.04c0.41-0.61,0.96-1.18,2-1.18c1.01,0,1.66,0.54,1.99,1.24c0.44-0.68,1.1-1.24,2.18-1.24
		c1.43,0,2.3,0.96,2.3,2.5v3.84h-0.92v-3.62c0-1.2-0.6-1.87-1.61-1.87c-0.94,0-1.71,0.7-1.71,1.92v3.57h-0.91v-3.65
		c0-1.16-0.61-1.85-1.6-1.85s-1.73,0.82-1.73,1.96v3.54h-0.92V310.35z"/>
</g>
<line class="st1" x1="13.51" y1="299.48" x2="13.51" y2="290.97"/>
<g>
	<path d="M75.52,314.56h-4.43l-0.24-0.68l4.75-5.78h0.83v5.67h1.31v0.79h-1.31v1.99h-0.91V314.56z M75.52,313.77v-4.33l-3.53,4.33
		H75.52z"/>
	<path d="M79.02,315.37l0.62-0.68c0.73,0.71,1.54,1.15,2.39,1.15c1.2,0,2.03-0.79,2.03-1.86v-0.02c0-1.04-0.86-1.76-2.09-1.76
		c-0.71,0-1.27,0.22-1.76,0.48l-0.64-0.42l0.24-4.09h4.83v0.88h-4.01l-0.18,2.69c0.49-0.22,0.96-0.37,1.65-0.37
		c1.63,0,2.9,0.97,2.9,2.57v0.02c0,1.64-1.25,2.76-3,2.76C80.82,316.7,79.78,316.12,79.02,315.37z"/>
	<path d="M86.47,312.38v-0.02c0-2.35,1.4-4.34,3.56-4.34s3.53,1.97,3.53,4.32v0.02c0,2.35-1.39,4.34-3.55,4.34
		C87.84,316.7,86.47,314.73,86.47,312.38z M92.58,312.38v-0.02c0-1.83-1.01-3.48-2.57-3.48c-1.57,0-2.55,1.61-2.55,3.45v0.02
		c0,1.83,1.01,3.48,2.58,3.48S92.58,314.21,92.58,312.38z"/>
	<path d="M95.34,310.35h0.92v1.08c0.41-0.67,1.06-1.21,2.12-1.21c1.5,0,2.37,1.01,2.37,2.48v3.85h-0.92v-3.62
		c0-1.15-0.62-1.87-1.72-1.87c-1.07,0-1.86,0.78-1.86,1.94v3.55h-0.92V310.35z"/>
	<path d="M102.73,310.35h0.92v1.04c0.41-0.61,0.96-1.18,2-1.18c1.01,0,1.66,0.54,1.99,1.24c0.44-0.68,1.1-1.24,2.18-1.24
		c1.43,0,2.3,0.96,2.3,2.5v3.84h-0.92v-3.62c0-1.2-0.6-1.87-1.61-1.87c-0.94,0-1.71,0.7-1.71,1.92v3.57h-0.91v-3.65
		c0-1.16-0.61-1.85-1.6-1.85s-1.73,0.82-1.73,1.96v3.54h-0.92V310.35z"/>
</g>
<g>
	<path d="M144.74,315.37l0.62-0.68c0.73,0.71,1.54,1.15,2.39,1.15c1.2,0,2.03-0.79,2.03-1.86v-0.02c0-1.04-0.86-1.76-2.09-1.76
		c-0.71,0-1.27,0.22-1.76,0.48l-0.64-0.42l0.24-4.09h4.83v0.88h-4.01l-0.18,2.69c0.49-0.22,0.96-0.37,1.65-0.37
		c1.63,0,2.9,0.97,2.9,2.57v0.02c0,1.64-1.25,2.76-3,2.76C146.54,316.7,145.5,316.12,144.74,315.37z"/>
	<path d="M151.91,315.82l3.05-2.69c1.28-1.15,1.75-1.8,1.75-2.64c0-0.98-0.78-1.61-1.69-1.61c-0.96,0-1.58,0.5-2.25,1.44l-0.7-0.5
		c0.76-1.13,1.55-1.79,3.02-1.79c1.51,0,2.6,1.01,2.6,2.38v0.02c0,1.22-0.65,1.98-2.12,3.26l-2.24,1.99h4.45v0.86h-5.87V315.82z"/>
	<path d="M159.26,312.38v-0.02c0-2.35,1.4-4.34,3.56-4.34s3.53,1.97,3.53,4.32v0.02c0,2.35-1.39,4.34-3.55,4.34
		C160.63,316.7,159.26,314.73,159.26,312.38z M165.37,312.38v-0.02c0-1.83-1.01-3.48-2.57-3.48c-1.57,0-2.55,1.61-2.55,3.45v0.02
		c0,1.83,1.01,3.48,2.58,3.48S165.37,314.21,165.37,312.38z"/>
	<path d="M168.13,310.35h0.92v1.08c0.41-0.67,1.06-1.21,2.12-1.21c1.5,0,2.37,1.01,2.37,2.48v3.85h-0.92v-3.62
		c0-1.15-0.62-1.87-1.72-1.87c-1.07,0-1.86,0.78-1.86,1.94v3.55h-0.92V310.35z"/>
	<path d="M175.52,310.35h0.92v1.04c0.41-0.61,0.96-1.18,2-1.18c1.01,0,1.66,0.54,1.99,1.24c0.44-0.68,1.1-1.24,2.18-1.24
		c1.43,0,2.3,0.96,2.3,2.5v3.84H184v-3.62c0-1.2-0.6-1.87-1.61-1.87c-0.94,0-1.71,0.7-1.71,1.92v3.57h-0.91v-3.65
		c0-1.16-0.61-1.85-1.6-1.85s-1.73,0.82-1.73,1.96v3.54h-0.92V310.35z"/>
</g>
<g>
	<path d="M218.64,315.37l0.62-0.68c0.73,0.71,1.54,1.15,2.39,1.15c1.2,0,2.03-0.79,2.03-1.86v-0.02c0-1.04-0.86-1.76-2.09-1.76
		c-0.71,0-1.27,0.22-1.76,0.48l-0.64-0.42l0.24-4.09h4.83v0.88h-4.01l-0.18,2.69c0.49-0.22,0.96-0.37,1.65-0.37
		c1.63,0,2.9,0.97,2.9,2.57v0.02c0,1.64-1.25,2.76-3,2.76C220.44,316.7,219.39,316.12,218.64,315.37z"/>
	<path d="M231.34,312.33v-0.17c-0.53,0.82-1.29,1.33-2.38,1.33c-1.73,0-2.93-1.09-2.93-2.6v-0.02c0-1.6,1.24-2.85,3.02-2.85
		c0.96,0,1.67,0.32,2.21,0.86c0.64,0.64,1.04,1.57,1.04,3.25v0.02c0,2.66-1.42,4.54-3.49,4.54c-1.09,0-1.88-0.44-2.59-1.03
		l0.55-0.73c0.68,0.6,1.32,0.9,2.06,0.9C230.47,315.83,231.34,314.14,231.34,312.33z M231.16,310.79v-0.02
		c0-1.07-0.88-1.91-2.13-1.91c-1.26,0-2.01,0.92-2.01,1.97v0.02c0,1.07,0.84,1.83,2.06,1.83
		C230.36,312.68,231.16,311.74,231.16,310.79z"/>
	<path d="M233.79,312.38v-0.02c0-2.35,1.4-4.34,3.56-4.34s3.53,1.97,3.53,4.32v0.02c0,2.35-1.39,4.34-3.55,4.34
		C235.16,316.7,233.79,314.73,233.79,312.38z M239.9,312.38v-0.02c0-1.83-1.01-3.48-2.57-3.48c-1.57,0-2.55,1.61-2.55,3.45v0.02
		c0,1.83,1.01,3.48,2.58,3.48S239.9,314.21,239.9,312.38z"/>
	<path d="M242.66,310.35h0.92v1.08c0.41-0.67,1.06-1.21,2.12-1.21c1.5,0,2.37,1.01,2.37,2.48v3.85h-0.92v-3.62
		c0-1.15-0.62-1.87-1.72-1.87c-1.07,0-1.86,0.78-1.86,1.94v3.55h-0.92V310.35z"/>
	<path d="M250.05,310.35h0.92v1.04c0.41-0.61,0.96-1.18,2-1.18c1.01,0,1.66,0.54,1.99,1.24c0.44-0.68,1.1-1.24,2.18-1.24
		c1.43,0,2.3,0.96,2.3,2.5v3.84h-0.92v-3.62c0-1.2-0.6-1.87-1.61-1.87c-0.94,0-1.71,0.7-1.71,1.92v3.57h-0.91v-3.65
		c0-1.16-0.61-1.85-1.6-1.85s-1.73,0.82-1.73,1.96v3.54h-0.92V310.35z"/>
</g>
<line class="st1" x1="536.83" y1="299.48" x2="536.83" y2="290.97"/>
<line class="st1" x1="536.83" y1="292.72" x2="536.83" y2="219.09"/>
<line class="st1" x1="596.49" y1="292.72" x2="596.49" y2="219.09"/>
<line class="st1" x1="667.32" y1="292.72" x2="667.32" y2="219.09"/>
<line class="st1" x1="772.32" y1="292.72" x2="772.32" y2="219.09"/>
<line class="st1" x1="596.49" y1="299.48" x2="596.49" y2="290.97"/>
<line class="st1" x1="667.32" y1="290.97" x2="667.32" y2="299.48"/>
<line class="st1" x1="772.32" y1="299.48" x2="772.32" y2="290.97"/>
<line class="st1" x1="1131.4" y1="299.48" x2="1131.4" y2="290.97"/>
<path class="st1" d="M87.97,78.09c0,0,4.53-10.71,5.65-16.44c2.21-11.3-7.61-13.26-4.18-24.32c1.89-6.09,4.67-13.28,4.67-13.28"/>
<path class="st1" d="M1009.43,78.09c0,0,4.53-10.71,5.65-16.44c2.21-11.3-7.61-13.26-4.18-24.32c1.89-6.09,4.67-13.28,4.67-13.28"/>
<path class="st1" d="M983.61,301.03c0,0,7.93-14.45,9.89-26.42c3.87-23.6-13.33-17.7-7.31-40.79c3.32-12.72,8.17-25.66,8.17-25.66"
	/>
<path class="st1" d="M1013.12,301.03c0,0,7.93-14.45,9.89-26.42c3.87-23.6-13.33-17.7-7.31-40.79c3.32-12.72,8.17-25.66,8.17-25.66"
	/>
<line class="st1" x1="475.67" y1="218.91" x2="448.02" y2="71.6"/>
<line class="st1" x1="1131" y1="218.91" x2="589.02" y2="71.6"/>
<line class="st1" x1="414.67" y1="218.91" x2="448.02" y2="71.6"/>
<line class="st1" x1="13.33" y1="218.91" x2="430.35" y2="71.6"/>
</svg>
