<svg xmlns="http://www.w3.org/2000/svg" width="16" height="16" viewBox="0 0 16 16">
  <path fill="#FF8400" fill-rule="evenodd" d="M8,0 C12.418278,0 16,3.581722 16,8 C16,12.418278 12.418278,16 8,16 C3.581722,16 0,12.418278 0,8 C0,3.581722 3.581722,0 8,0 Z M4.94384378,5.13327449 L2.80626655,5.13327449 L4.88868049,12.1941748 L6.72285966,12.1941748 L7.92266108,8.25 L7.97782436,8.25 L9.17762577,12.1941748 L11.0118049,12.1941748 L13.0942189,5.13327449 L10.9566417,5.13327449 L9.9912842,9.49117387 L9.93612092,9.49117387 L8.79148279,5.13327449 L7.10900265,5.13327449 L5.96436452,9.47738305 L5.90920124,9.47738305 L4.94384378,5.13327449 Z"/>
</svg>
